<?xml version="1.0" encoding="UTF-8"?>
<svg id="_레이어_2" data-name="레이어 2" xmlns="http://www.w3.org/2000/svg" viewBox="0 0 456.59 227.66">
  <defs>
    <style>
      .cls-1 {
        fill: #000;
        stroke-width: 0px;
      }
    </style>
  </defs>
  <g id="_레이어_1-2" data-name="레이어 1">
    <g>
      <path class="cls-1" d="M19.27,12.96h-6.26c.02,3.39,2.02,7.07,7.42,8.72l-2.43,3.9c-3.55-1-5.99-3.11-7.42-5.77-1.44,2.88-3.92,5.15-7.63,6.26l-2.43-3.94c5.36-1.58,7.4-5.47,7.42-9.18H1.72v-3.97h6.22v-3.41h5.1v3.41h6.22v3.97ZM28.9,37.11H6.54v-9.84h5.06v5.8h17.3v4.04ZM28.16,29.27h-5.03v-10.58h-4.92v-4.04h4.92V5.4h5.03v23.87Z"/>
      <path class="cls-1" d="M50.38,12.96h-6.26c.02,3.39,2.02,7.07,7.42,8.72l-2.43,3.9c-3.55-1-5.99-3.11-7.42-5.77-1.44,2.88-3.92,5.15-7.63,6.26l-2.43-3.94c5.36-1.58,7.4-5.47,7.42-9.18h-6.22v-3.97h6.22v-3.41h5.1v3.41h6.22v3.97ZM60.01,37.11h-22.36v-9.84h5.06v5.8h17.3v4.04ZM59.27,29.27h-5.03v-10.58h-4.92v-4.04h4.92V5.4h5.03v23.87Z"/>
      <path class="cls-1" d="M82.93,14.15h-19.2v-4.04h7.03v-4.29h5.13v4.29h7.03v4.04ZM81.77,23.4c0,4.57-3.59,7.77-8.37,7.77s-8.44-3.2-8.44-7.77,3.59-7.77,8.44-7.77,8.37,3.23,8.37,7.77ZM69.82,23.4c-.04,2.39,1.44,3.66,3.59,3.66s3.52-1.27,3.52-3.66-1.44-3.66-3.52-3.69c-2.14.04-3.62,1.37-3.59,3.69ZM90.18,37.63h-5.1V5.36h5.1v32.27Z"/>
      <path class="cls-1" d="M98.33,41.75h-4.11l1.69-10.16h5.55l-3.13,10.16Z"/>
      <path class="cls-1" d="M117.67,25.47c2.41-.07,5.06-.3,7.91-.84l.49,4.36c-4.25.74-7.95.95-11.21.91h-2.25V8.84h5.06v16.63ZM139.29,37.63h-4.82v-15.96h-2.53v14.41h-4.71V5.85h4.71v11.78h2.53V5.36h4.82v32.27Z"/>
      <path class="cls-1" d="M171.11,22.17l.35,3.66c-2.51.44-5.12.74-7.66.91v9.88h-5.06v-9.6c-2.65.09-5.17.11-7.42.11l-.6-4.08c5.84,0,13.71-.04,20.39-.88ZM169.98,12.36h-6.12c.16,2.32,2.18,4.46,6.96,5.27l-1.97,3.83c-3.6-.62-6.05-2.13-7.49-4.15-1.41,2.25-3.9,3.94-7.66,4.64l-2.07-3.9c4.9-.84,6.93-3.18,7.1-5.7h-6.15v-3.9h6.22v-3.02h5.03v3.02h6.15v3.9ZM177.96,37.6h-5.06V5.4h5.06v32.2Z"/>
      <path class="cls-1" d="M200.78,12.18h-19.12v-3.94h7.03v-3.02h5.06v3.02h7.03v3.94ZM199.23,18.93c0,3.48-3.3,5.8-8.02,5.84-4.75-.04-8.09-2.36-8.05-5.84-.04-3.45,3.3-5.84,8.05-5.84s8.02,2.39,8.02,5.84ZM207.74,31.87c0,3.59-4.32,5.8-11,5.77-6.82.04-11.04-2.18-11.04-5.77s4.22-5.8,11.04-5.8,11,2.18,11,5.8ZM188.09,18.93c0,1.44,1.27,2.11,3.13,2.07,1.9.04,3.2-.63,3.2-2.07s-1.3-2.14-3.2-2.14-3.13.7-3.13,2.14ZM190.72,31.87c-.04,1.34,2,2.04,6.01,2.04s5.91-.7,5.91-2.04c0-1.41-2-1.97-5.91-1.97s-6.05.56-6.01,1.97ZM211.39,13.87h-4.01v2.92h4.01v4.08h-4.01v4.89h-5.06V5.36h5.06v4.43h4.01v4.08Z"/>
      <path class="cls-1" d="M225.63,13.1h-6.93v13.18c2.78-.04,5.4-.19,8.33-.7l.35,4.08c-3.97.77-7.45.88-11.46.88h-2.32V9.05h12.02v4.04ZM240.79,37.63h-4.78v-15.96h-2.6v14.41h-4.61V5.85h4.61v11.81h2.6V5.36h4.78v32.27Z"/>
      <path class="cls-1" d="M273.41,34.15h-29.5v-4.11h12.2v-4.5h-8.89v-11.11h17.89v-3.02h-17.93v-4.04h22.92v11h-17.82v3.09h18.56v4.08h-9.74v4.5h12.3v4.11Z"/>
      <path class="cls-1" d="M19.93,58.57H.81v-3.94h7.03v-3.27h5.06v3.27h7.03v3.94ZM18.39,65.81c0,3.73-3.3,6.22-8.02,6.22s-8.09-2.5-8.05-6.22c-.04-3.76,3.34-6.33,8.05-6.33s8.02,2.57,8.02,6.33ZM27.6,83.11H5.38v-9.49h5.06v5.45h17.16v4.04ZM7.24,65.81c0,1.62,1.27,2.39,3.13,2.43,1.9-.04,3.2-.81,3.2-2.43s-1.3-2.46-3.2-2.46-3.13.84-3.13,2.46ZM26.54,61.06h4.18v4.11h-4.18v10.3h-5.06v-24.08h5.06v9.67Z"/>
      <path class="cls-1" d="M68.55,83.11h-24.4v-9.88h4.04v-6.01c-2.79.12-5.45.16-7.8.18l-.6-3.94c3.73-.07,8.28-.12,12.9-.39.33-2.51.49-4.59.56-6.22h-10.55v-3.97h15.61v1.16c0,1.6,0,4.57-.6,8.65.98-.11,1.97-.23,2.92-.35l.32,3.59c-2.53.46-5.15.77-7.73.98v6.75h-4.01v5.41h19.34v4.04ZM67.89,75.65h-5.17v-3.23h-6.05v-3.97h6.05v-17.05h5.17v24.26Z"/>
      <path class="cls-1" d="M81.77,63.28c1.6-2.48,1.93-5.57,1.93-8.47v-1.62h4.75v1.62c0,4.11.88,8.4,4.68,10.69l-2.78,3.55c-2.11-1.28-3.46-3.25-4.25-5.62-.81,2.48-2.13,4.64-4.29,6.05-2.21-1.41-3.55-3.59-4.32-6.08-.84,2.37-2.18,4.36-4.29,5.66l-2.74-3.55c3.8-2.36,4.64-6.64,4.64-10.69v-1.62h4.75v1.62c0,2.87.32,5.98,1.93,8.47ZM99,83.63h-5.06v-8.12h-18.25v-4.01h23.31v12.13ZM99,70.1h-5.06v-18.74h5.06v18.74Z"/>
      <path class="cls-1" d="M139.64,69.12h-29.25v-4.04h12.66v-5.06h4.99v5.06h11.6v4.04ZM136.34,75.13h-7.95c1.23,2.09,4.11,3.83,9.32,4.43l-1.93,3.9c-5.29-.69-8.88-2.69-10.79-5.48-1.95,2.79-5.54,4.85-10.83,5.55l-1.83-3.94c5.12-.6,7.98-2.37,9.25-4.46h-7.91v-4.01h22.68v4.01ZM122.77,54.07c0,2,0,5.45-1.72,9.7l-4.85-.6c1.04-2.83,1.41-4.99,1.55-6.68h-5.1v-3.9h10.12v1.48ZM136.9,54.7c0,2.25,0,5.31-1.05,9.07l-4.85-.53c.76-2.78.95-4.92,1.02-6.75h-6.93v-3.9h11.81v2.11Z"/>
      <path class="cls-1" d="M158.73,65.11c-.04,7.17-3.66,11.64-8.61,11.64s-8.68-4.46-8.65-11.64c-.04-7.07,3.62-11.53,8.65-11.53s8.58,4.46,8.61,11.53ZM146.39,65.11c-.04,4.68,1.48,7.03,3.73,7.03s3.73-2.36,3.76-7.03c-.04-4.61-1.48-6.96-3.76-6.96s-3.76,2.36-3.73,6.96ZM166.99,63.31h4.57v4.18h-4.57v16.14h-5.06v-32.27h5.06v11.95Z"/>
      <path class="cls-1" d="M178.49,71.58c3.94-.09,8.21-.47,12.66-1.34l.53,4.18c-5.34,1.09-10.65,1.34-15.36,1.34h-2.88v-21.34h5.06v17.16ZM202.43,67.5h-4.32v16.03h-5.06v-32.17h5.06v12.02h4.32v4.11Z"/>
      <path class="cls-1" d="M205.95,78.15l-2.85-3.87c7.4-3.71,11.37-8.53,12.27-15.54h-10.34v-4.15h15.47c0,9.81-3.59,18.18-14.55,23.55ZM229.22,63.49h4.32v4.15h-4.32v15.89h-5.06v-32.17h5.06v12.13Z"/>
      <path class="cls-1" d="M264.2,70.91h-29.5v-3.97h29.5v3.97ZM261.18,82.93h-23.2v-9.6h5.06v5.55h18.14v4.04ZM260.96,63.81h-22.68v-11.29h5.03v7.35h17.65v3.94Z"/>
      <path class="cls-1" d="M6.82,117.58c3.94-.09,8.21-.47,12.66-1.34l.53,4.18c-5.34,1.09-10.65,1.34-15.36,1.34H1.76v-21.34h5.06v17.16ZM30.76,113.5h-4.32v16.03h-5.06v-32.17h5.06v12.02h4.32v4.11Z"/>
      <path class="cls-1" d="M48.45,115.64h-15.64v-15.68h15.64v15.68ZM58.71,129.11h-22.22v-10.58h5.06v6.54h17.16v4.04ZM37.79,111.71h5.66v-7.73h-5.66v7.73ZM57.66,106.5h4.18v4.15h-4.18v10.23h-5.06v-23.48h5.06v9.11Z"/>
      <path class="cls-1" d="M83.6,118.17l.39,3.66c-7.07,1.37-14.62,1.44-20.21,1.44l-.56-4.08c5.66,0,13.57-.07,20.39-1.02ZM82.51,107.49c-.04,4.68-3.9,8.05-9.04,8.02-5.1.04-9.04-3.34-9.04-8.02s3.94-8.05,9.04-8.02c5.13-.04,9,3.34,9.04,8.02ZM69.47,107.49c0,2.43,1.76,3.66,4.01,3.66s4.08-1.23,4.11-3.66c-.04-2.36-1.79-3.66-4.11-3.66s-4.01,1.3-4.01,3.66ZM90.35,129.71h-5.03v-32.34h5.03v32.34Z"/>
      <path class="cls-1" d="M102.55,116.8c0-5.91,3.69-9.88,9.42-9.88,5.34,0,9.21,3.41,9.21,9.74v1.51h-12.8v.11c0,2.46,1.51,4.04,3.9,4.04,1.62,0,2.81-.7,3.3-1.83h5.52c-.7,3.73-3.97,6.12-8.93,6.12-5.98,0-9.63-3.73-9.63-9.81ZM115.66,114.69c-.04-2.04-1.51-3.48-3.55-3.48s-3.64,1.49-3.73,3.48h7.28Z"/>
      <path class="cls-1" d="M136.41,118.21h-11.74v-4.57h11.74v4.57Z"/>
      <path class="cls-1" d="M165.9,115.57h-9.18v6.4h12.3v4.11h-29.5v-4.11h12.2v-6.4h-8.82v-16.03h22.78v4.01h-17.72v8.05h17.93v3.97Z"/>
      <path class="cls-1" d="M190.72,118.63l-3.06,4.04c-3.52-1.69-5.77-4.66-7.07-8.4-1.39,3.99-3.74,7.24-7.38,9l-3.16-4.15c5.77-2.57,7.91-8.79,7.95-14.91v-4.46h5.13v4.46c0,6.15,2,12.06,7.59,14.41ZM198,129.71h-4.99v-18.39h-5.91v-4.08h5.91v-9.88h4.99v32.34Z"/>
      <path class="cls-1" d="M211.96,113.15c3.11-.14,6.28-.39,9.21-.81l.25,3.62c-6.68,1.27-14.17,1.37-19.72,1.37l-.42-3.97c1.71,0,3.62,0,5.66-.04v-6.12h5.03v5.94ZM219.9,101.79c0,2.29,0,5.48-.7,9.42l-4.96-.46c.51-2.87.65-5.12.7-7h-11.81v-4.11h16.77v2.14ZM228.94,129.11h-23.03v-9.77h5.1v5.73h17.93v4.04ZM227.95,106.99h3.66v4.18h-3.66v10.3h-5.2v-24.12h5.2v9.63Z"/>
      <path class="cls-1" d="M7.31,146.81l5.48,10.69h.21l5.48-10.69h6.68l-9.28,16.84v8.61h-5.98v-8.61L.6,146.81h6.71Z"/>
      <path class="cls-1" d="M22.66,162.8c0-5.91,3.69-9.88,9.42-9.88,5.34,0,9.21,3.41,9.21,9.74v1.51h-12.8v.11c0,2.46,1.51,4.04,3.9,4.04,1.62,0,2.81-.7,3.3-1.83h5.52c-.7,3.73-3.97,6.12-8.93,6.12-5.98,0-9.63-3.73-9.63-9.81ZM35.77,160.69c-.04-2.04-1.51-3.48-3.55-3.48s-3.64,1.49-3.73,3.48h7.28Z"/>
      <path class="cls-1" d="M44.38,146.81h5.98v20.57h10.69v4.89h-16.66v-25.45Z"/>
      <path class="cls-1" d="M72.37,152.92c-.04-1.72,1.41-3.13,3.16-3.13s3.16,1.41,3.2,3.13c-.04,1.79-1.51,3.2-3.2,3.2s-3.2-1.41-3.16-3.2ZM72.37,166.07c-.04-1.72,1.41-3.13,3.16-3.13s3.16,1.41,3.2,3.13c-.04,1.79-1.51,3.2-3.2,3.2s-3.2-1.41-3.16-3.2Z"/>
      <path class="cls-1" d="M96.17,146.81l5.48,10.69h.21l5.48-10.69h6.68l-9.28,16.84v8.61h-5.98v-8.61l-9.32-16.84h6.71Z"/>
      <path class="cls-1" d="M111.52,162.77c0-5.87,3.62-9.84,9.6-9.84s9.6,3.97,9.6,9.84-3.62,9.84-9.6,9.84-9.6-3.97-9.6-9.84ZM124.66,162.73c0-3.2-1.27-5.41-3.52-5.41s-3.59,2.21-3.59,5.41,1.27,5.41,3.59,5.41,3.52-2.21,3.52-5.41Z"/>
      <path class="cls-1" d="M146.07,153.17h5.91v19.09h-5.62v-3.52h-.21c-.84,2.29-2.95,3.76-5.84,3.76-3.9,0-6.54-2.81-6.54-7.17v-12.16h5.94v11.04c0,2.07,1.16,3.38,3.06,3.38s3.3-1.27,3.3-3.55v-10.86Z"/>
      <path class="cls-1" d="M155.81,153.17h5.77v3.45h.18c.7-2.5,2.39-3.73,4.5-3.73.56,0,1.2.11,1.69.21v5.17c-.56-.18-1.62-.28-2.36-.28-2.21,0-3.83,1.55-3.83,3.83v10.44h-5.94v-19.09Z"/>
      <path class="cls-1" d="M177.64,162.8c0-5.91,3.69-9.88,9.42-9.88,5.34,0,9.21,3.41,9.21,9.74v1.51h-12.8v.11c0,2.46,1.51,4.04,3.9,4.04,1.62,0,2.81-.7,3.3-1.83h5.52c-.7,3.73-3.97,6.12-8.93,6.12-5.98,0-9.63-3.73-9.63-9.81ZM190.76,160.69c-.04-2.04-1.51-3.48-3.55-3.48s-3.64,1.49-3.73,3.48h7.28Z"/>
      <path class="cls-1" d="M211.5,164.21h-11.74v-4.57h11.74v4.57Z"/>
      <path class="cls-1" d="M215.72,146.81h5.98v20.57h10.69v4.89h-16.66v-25.45Z"/>
      <path class="cls-1" d="M235.41,148.04c0-1.58,1.37-2.85,3.06-2.85s3.09,1.27,3.09,2.85-1.41,2.85-3.09,2.85-3.06-1.27-3.06-2.85ZM235.48,153.17h5.94v19.09h-5.94v-19.09Z"/>
      <path class="cls-1" d="M245.25,146.81h5.91v9.63h.14c.74-1.72,2.36-3.52,5.41-3.52,4.01,0,7.63,3.09,7.63,9.81s-3.41,9.81-7.66,9.81c-2.92,0-4.61-1.65-5.38-3.38h-.18v3.09h-5.87v-25.45ZM254.67,167.9c2.29,0,3.59-2.04,3.59-5.2s-1.27-5.13-3.59-5.13-3.62,1.97-3.62,5.13,1.34,5.2,3.62,5.2Z"/>
      <path class="cls-1" d="M267.47,153.17h5.77v3.45h.18c.7-2.5,2.39-3.73,4.5-3.73.56,0,1.2.11,1.69.21v5.17c-.56-.18-1.62-.28-2.36-.28-2.21,0-3.83,1.55-3.83,3.83v10.44h-5.94v-19.09Z"/>
      <path class="cls-1" d="M287.49,160.97c1.37-.09,3.76-.18,4.57-.21v-1.55c0-1.34-.98-2.07-2.6-2.07s-2.57.67-2.81,1.93h-5.52c.25-3.38,3.13-6.15,8.47-6.15,4.71,0,8.4,2.25,8.4,6.36v12.97h-5.59v-2.67h-.14c-1.05,1.93-2.88,3.02-5.55,3.02-3.66,0-6.29-1.86-6.29-5.66,0-4.22,3.27-5.73,7.07-5.98ZM288.51,168.67c2,0,3.62-1.3,3.59-3.2v-1.23c-.72.04-2.74.12-3.62.21-1.48.18-2.43.98-2.43,2.25s1.02,1.97,2.46,1.97Z"/>
      <path class="cls-1" d="M301.62,153.17h5.77v3.45h.18c.7-2.5,2.39-3.73,4.5-3.73.56,0,1.2.11,1.69.21v5.17c-.56-.18-1.62-.28-2.36-.28-2.21,0-3.83,1.55-3.83,3.83v10.44h-5.94v-19.09Z"/>
      <path class="cls-1" d="M317.23,179.33v-4.5c.77.07,1.62.07,2.32.07.98,0,1.72-.11,2.25-1.37l.21-.6-6.79-19.76h6.19l3.62,13.71h.21l3.62-13.71h6.26l-7.24,20.95c-1.05,3.13-3.23,5.31-7.7,5.31-1.12,0-2.18-.04-2.95-.11Z"/>
    </g>
  </g>
</svg>