<?xml version="1.0" encoding="UTF-8"?>
<svg id="_레이어_1" data-name="레이어 1" xmlns="http://www.w3.org/2000/svg" viewBox="0 0 685.61 397.24">
  <defs>
    <style>
      .cls-1 {
        fill: #040000;
        stroke-width: 0px;
      }
    </style>
  </defs>
  <path class="cls-1" d="M38.53,25.91h-12.52c.04,6.79,4.04,14.13,14.84,17.44l-4.85,7.8c-7.1-2-11.99-6.22-14.84-11.53-2.88,5.77-7.84,10.3-15.26,12.52l-4.85-7.88c10.72-3.16,14.8-10.93,14.84-18.35H3.45v-7.95h12.45v-6.82h10.2v6.82h12.45v7.95ZM57.8,74.21H13.08v-19.69h10.12v11.6h34.59v8.09ZM56.32,58.54h-10.05v-21.16h-9.84v-8.09h9.84V10.79h10.05v47.74Z"/>
  <path class="cls-1" d="M101.48,25.91h-12.52c.04,6.79,4.04,14.13,14.84,17.44l-4.85,7.8c-7.1-2-11.99-6.22-14.84-11.53-2.88,5.77-7.84,10.3-15.26,12.52l-4.85-7.88c10.72-3.16,14.8-10.93,14.84-18.35h-12.45v-7.95h12.45v-6.82h10.2v6.82h12.45v7.95ZM120.74,74.21h-44.72v-19.69h10.12v11.6h34.59v8.09ZM119.27,58.54h-10.05v-21.16h-9.84v-8.09h9.84V10.79h10.05v47.74Z"/>
  <path class="cls-1" d="M167.31,28.3h-38.39v-8.09h14.06v-8.58h10.27v8.58h14.06v8.09ZM164.99,46.79c0,9.14-7.17,15.54-16.73,15.54s-16.88-6.4-16.88-15.54,7.17-15.54,16.88-15.54,16.73,6.47,16.73,15.54ZM141.08,46.79c-.07,4.78,2.88,7.31,7.17,7.31s7.03-2.53,7.03-7.31-2.88-7.31-7.03-7.38c-4.29.07-7.24,2.74-7.17,7.38ZM181.79,75.27h-10.2V10.72h10.2v64.55Z"/>
  <path class="cls-1" d="M198.82,83.5h-8.23l3.38-20.32h11.11l-6.26,20.32Z"/>
  <path class="cls-1" d="M238.94,50.94c4.82-.14,10.12-.6,15.82-1.69l.98,8.72c-8.51,1.48-15.89,1.9-22.43,1.83h-4.5V17.68h10.12v33.26ZM282.18,75.27h-9.63v-31.92h-5.06v28.83h-9.42V11.71h9.42v23.55h5.06V10.72h9.63v64.55Z"/>
  <path class="cls-1" d="M347.25,44.33l.7,7.31c-5.03.88-10.23,1.48-15.33,1.83v19.76h-10.12v-19.2c-5.31.18-10.34.21-14.84.21l-1.2-8.16c11.67,0,27.42-.07,40.78-1.76ZM345,24.71h-12.23c.32,4.64,4.36,8.93,13.92,10.55l-3.94,7.66c-7.21-1.23-12.09-4.25-14.98-8.3-2.81,4.5-7.8,7.88-15.33,9.28l-4.15-7.8c9.81-1.69,13.85-6.36,14.2-11.39h-12.3v-7.8h12.45v-6.05h10.05v6.05h12.3v7.8ZM360.96,75.2h-10.12V10.79h10.12v64.41Z"/>
  <path class="cls-1" d="M407.31,24.36h-38.25v-7.88h14.06v-6.05h10.12v6.05h14.06v7.88ZM404.22,37.86c0,6.96-6.61,11.6-16.03,11.67-9.49-.07-16.17-4.71-16.1-11.67-.07-6.89,6.61-11.67,16.1-11.67s16.03,4.78,16.03,11.67ZM421.24,63.74c0,7.17-8.65,11.6-22.01,11.53-13.64.07-22.08-4.36-22.08-11.53s8.44-11.6,22.08-11.6,22.01,4.36,22.01,11.6ZM381.93,37.86c0,2.88,2.53,4.22,6.26,4.15,3.8.07,6.4-1.27,6.4-4.15s-2.6-4.29-6.4-4.29-6.26,1.41-6.26,4.29ZM387.21,63.74c-.07,2.67,4.01,4.08,12.02,4.08s11.81-1.41,11.81-4.08c0-2.81-4.01-3.94-11.81-3.94s-12.09,1.12-12.02,3.94ZM428.55,27.74h-8.02v5.84h8.02v8.16h-8.02v9.77h-10.12V10.72h10.12v8.86h8.02v8.16Z"/>
  <path class="cls-1" d="M457.75,26.19h-13.85v26.37c5.55-.07,10.79-.39,16.66-1.41l.7,8.16c-7.95,1.55-14.91,1.76-22.92,1.76h-4.64V18.11h24.05v8.09ZM488.05,75.27h-9.56v-31.92h-5.2v28.83h-9.21V11.71h9.21v23.62h5.2V10.72h9.56v64.55Z"/>
  <path class="cls-1" d="M554.02,68.31h-58.99v-8.23h24.4v-9h-17.79v-22.22h35.79v-6.05h-35.86v-8.09h45.84v22.01h-35.65v6.19h37.12v8.16h-19.48v9h24.61v8.23Z"/>
  <path class="cls-1" d="M39.87,125.14H1.62v-7.88h14.06v-6.54h10.12v6.54h14.06v7.88ZM36.77,139.62c0,7.45-6.61,12.45-16.03,12.45s-16.17-4.99-16.1-12.45c-.07-7.52,6.68-12.66,16.1-12.66s16.03,5.13,16.03,12.66ZM55.2,174.21H10.76v-18.98h10.12v10.9h34.31v8.09ZM14.48,139.62c0,3.23,2.53,4.78,6.26,4.85,3.8-.07,6.4-1.62,6.4-4.85s-2.6-4.92-6.4-4.92-6.26,1.69-6.26,4.92ZM53.09,130.13h8.37v8.23h-8.37v20.6h-10.12v-48.16h10.12v19.34Z"/>
  <path class="cls-1" d="M138.55,174.21h-48.8v-19.76h8.09v-12.02c-5.59.25-10.9.32-15.61.35l-1.2-7.88c7.45-.14,16.56-.25,25.8-.77.67-5.03.98-9.18,1.12-12.45h-21.09v-7.95h31.22v2.32c0,3.2,0,9.14-1.2,17.3,1.97-.21,3.94-.46,5.84-.7l.63,7.17c-5.06.91-10.3,1.55-15.47,1.97v13.5h-8.02v10.83h38.67v8.09ZM137.21,159.31h-10.34v-6.47h-12.09v-7.95h12.09v-34.1h10.34v48.52Z"/>
  <path class="cls-1" d="M165.71,134.56c3.2-4.96,3.87-11.14,3.87-16.95v-3.23h9.49v3.23c0,8.23,1.76,16.8,9.35,21.38l-5.55,7.1c-4.22-2.57-6.93-6.5-8.51-11.25-1.62,4.96-4.25,9.28-8.58,12.09-4.43-2.81-7.1-7.17-8.65-12.16-1.69,4.75-4.36,8.72-8.58,11.32l-5.48-7.1c7.59-4.71,9.28-13.29,9.28-21.38v-3.23h9.49v3.23c0,5.73.63,11.95,3.87,16.95ZM200.16,175.27h-10.12v-16.24h-36.49v-8.02h46.62v24.26ZM200.16,148.2h-10.12v-37.48h10.12v37.48Z"/>
  <path class="cls-1" d="M282.88,146.23h-58.5v-8.09h25.31v-10.12h9.98v10.12h23.2v8.09ZM276.27,158.25h-15.89c2.46,4.18,8.23,7.66,18.63,8.86l-3.87,7.8c-10.58-1.37-17.75-5.38-21.59-10.97-3.9,5.59-11.07,9.7-21.66,11.11l-3.66-7.88c10.23-1.2,15.96-4.75,18.49-8.93h-15.82v-8.02h45.35v8.02ZM249.13,116.14c0,4.01,0,10.9-3.45,19.41l-9.7-1.2c2.07-5.66,2.81-9.98,3.09-13.36h-10.2v-7.8h20.25v2.95ZM277.4,117.4c0,4.5,0,10.62-2.11,18.14l-9.7-1.05c1.51-5.55,1.9-9.84,2.04-13.5h-13.85v-7.8h23.62v4.22Z"/>
  <path class="cls-1" d="M321.78,138.21c-.07,14.34-7.31,23.27-17.23,23.27s-17.37-8.93-17.3-23.27c-.07-14.13,7.24-23.06,17.3-23.06s17.16,8.93,17.23,23.06ZM297.1,138.21c-.07,9.35,2.95,14.06,7.45,14.06s7.45-4.71,7.52-14.06c-.07-9.21-2.95-13.92-7.52-13.92s-7.52,4.71-7.45,13.92ZM338.3,134.63h9.14v8.37h-9.14v32.27h-10.12v-64.55h10.12v23.91Z"/>
  <path class="cls-1" d="M362.02,151.15c7.88-.18,16.42-.95,25.31-2.67l1.05,8.37c-10.69,2.18-21.3,2.67-30.73,2.67h-5.77v-42.68h10.12v34.31ZM409.9,143h-8.65v32.06h-10.12v-64.34h10.12v24.05h8.65v8.23Z"/>
  <path class="cls-1" d="M417.65,164.3l-5.7-7.73c14.8-7.42,22.75-17.05,24.54-31.08h-20.67v-8.3h30.94c0,19.62-7.17,36.35-29.11,47.11ZM464.2,134.98h8.65v8.3h-8.65v31.78h-10.12v-64.34h10.12v24.26Z"/>
  <path class="cls-1" d="M534.88,149.82h-58.99v-7.95h58.99v7.95ZM528.83,173.86h-46.41v-19.2h10.12v11.11h36.28v8.09ZM528.41,135.61h-45.35v-22.57h10.05v14.7h35.3v7.88Z"/>
  <path class="cls-1" d="M13.64,251.15c7.88-.18,16.42-.95,25.31-2.67l1.05,8.37c-10.69,2.18-21.3,2.67-30.73,2.67H3.52v-42.68h10.12v34.31ZM61.52,243h-8.65v32.06h-10.12v-64.34h10.12v24.05h8.65v8.23Z"/>
  <path class="cls-1" d="M97.61,247.29h-31.29v-31.36h31.29v31.36ZM118.14,274.21h-44.44v-21.16h10.12v13.08h34.31v8.09ZM76.31,239.41h11.32v-15.47h-11.32v15.47ZM116.03,229h8.37v8.3h-8.37v20.46h-10.12v-46.97h10.12v18.21Z"/>
  <path class="cls-1" d="M168.64,252.35l.77,7.31c-14.13,2.74-29.25,2.88-40.43,2.88l-1.12-8.16c11.32,0,27.14-.14,40.78-2.04ZM166.46,230.97c-.07,9.35-7.8,16.1-18.07,16.03-10.2.07-18.07-6.68-18.07-16.03s7.88-16.1,18.07-16.03c10.27-.07,18,6.68,18.07,16.03ZM140.38,230.97c0,4.85,3.52,7.31,8.02,7.31s8.16-2.46,8.23-7.31c-.07-4.71-3.59-7.31-8.23-7.31s-8.02,2.6-8.02,7.31ZM182.14,275.41h-10.05v-64.69h10.05v64.69Z"/>
  <path class="cls-1" d="M207.98,249.61c0-11.81,7.38-19.76,18.84-19.76,10.69,0,18.42,6.82,18.42,19.48v3.02h-25.59v.21c0,4.92,3.02,8.09,7.8,8.09,3.23,0,5.62-1.41,6.61-3.66h11.04c-1.41,7.45-7.95,12.23-17.86,12.23-11.95,0-19.27-7.45-19.27-19.62ZM234.21,245.39c-.07-4.08-3.02-6.96-7.1-6.96s-7.28,2.99-7.45,6.96h14.55Z"/>
  <path class="cls-1" d="M276.41,252.42h-23.48v-9.14h23.48v9.14Z"/>
  <path class="cls-1" d="M336.12,247.14h-18.35v12.8h24.61v8.23h-58.99v-8.23h24.4v-12.8h-17.65v-32.06h45.56v8.02h-35.44v16.1h35.86v7.95Z"/>
  <path class="cls-1" d="M386.49,253.26l-6.12,8.09c-7.03-3.38-11.53-9.32-14.13-16.8-2.78,7.98-7.49,14.48-14.77,18l-6.33-8.3c11.53-5.13,15.82-17.58,15.89-29.81v-8.93h10.27v8.93c0,12.3,4.01,24.12,15.19,28.83ZM401.04,275.41h-9.98v-36.77h-11.81v-8.16h11.81v-19.76h9.98v64.69Z"/>
  <path class="cls-1" d="M429.67,242.29c6.22-.28,12.55-.77,18.42-1.62l.49,7.24c-13.36,2.53-28.34,2.74-39.45,2.74l-.84-7.95c3.41,0,7.24,0,11.32-.07v-12.23h10.05v11.88ZM445.56,219.58c0,4.57,0,10.97-1.41,18.84l-9.91-.91c1.02-5.73,1.3-10.23,1.41-13.99h-23.62v-8.23h33.54v4.29ZM463.63,274.21h-46.05v-19.55h10.2v11.46h35.86v8.09ZM461.67,229.99h7.31v8.37h-7.31v20.6h-10.41v-48.23h10.41v19.27Z"/>
  <path class="cls-1" d="M14.62,317.61l10.97,21.38h.42l10.97-21.38h13.36l-18.56,33.68v17.23h-11.95v-17.23L1.2,317.61h13.43Z"/>
  <path class="cls-1" d="M46.04,349.61c0-11.81,7.38-19.76,18.84-19.76,10.69,0,18.42,6.82,18.42,19.48v3.02h-25.59v.21c0,4.92,3.02,8.09,7.8,8.09,3.23,0,5.62-1.41,6.61-3.66h11.04c-1.41,7.45-7.95,12.23-17.86,12.23-11.95,0-19.27-7.45-19.27-19.62ZM72.26,345.39c-.07-4.08-3.02-6.96-7.1-6.96s-7.28,2.99-7.45,6.96h14.55Z"/>
  <path class="cls-1" d="M90.21,317.61h11.95v41.13h21.38v9.77h-33.33v-50.91Z"/>
  <path class="cls-1" d="M147.62,329.85c-.07-3.45,2.81-6.26,6.33-6.26s6.33,2.81,6.4,6.26c-.07,3.59-3.02,6.4-6.4,6.4s-6.4-2.81-6.33-6.4ZM147.62,356.14c-.07-3.45,2.81-6.26,6.33-6.26s6.33,2.81,6.4,6.26c-.07,3.59-3.02,6.4-6.4,6.4s-6.4-2.81-6.33-6.4Z"/>
  <path class="cls-1" d="M196.66,317.61l10.97,21.38h.42l10.97-21.38h13.36l-18.56,33.68v17.23h-11.95v-17.23l-18.63-33.68h13.43Z"/>
  <path class="cls-1" d="M228.07,349.54c0-11.74,7.24-19.69,19.2-19.69s19.2,7.95,19.2,19.69-7.24,19.69-19.2,19.69-19.2-7.95-19.2-19.69ZM254.37,349.46c0-6.4-2.53-10.83-7.03-10.83s-7.17,4.43-7.17,10.83,2.53,10.83,7.17,10.83,7.03-4.43,7.03-10.83Z"/>
  <path class="cls-1" d="M297.91,330.34h11.81v38.18h-11.25v-7.03h-.42c-1.69,4.57-5.91,7.52-11.67,7.52-7.8,0-13.08-5.62-13.08-14.34v-24.33h11.88v22.08c0,4.15,2.32,6.75,6.12,6.75s6.61-2.53,6.61-7.1v-21.73Z"/>
  <path class="cls-1" d="M318.11,330.34h11.53v6.89h.35c1.41-4.99,4.78-7.45,9-7.45,1.12,0,2.39.21,3.38.42v10.34c-1.12-.35-3.23-.56-4.71-.56-4.43,0-7.66,3.09-7.66,7.66v20.88h-11.88v-38.18Z"/>
  <path class="cls-1" d="M363.21,349.61c0-11.81,7.38-19.76,18.84-19.76,10.69,0,18.42,6.82,18.42,19.48v3.02h-25.59v.21c0,4.92,3.02,8.09,7.8,8.09,3.23,0,5.62-1.41,6.61-3.66h11.04c-1.41,7.45-7.95,12.23-17.86,12.23-11.95,0-19.27-7.45-19.27-19.62ZM389.44,345.39c-.07-4.08-3.02-6.96-7.1-6.96s-7.28,2.99-7.45,6.96h14.55Z"/>
  <path class="cls-1" d="M431.64,352.42h-23.48v-9.14h23.48v9.14Z"/>
  <path class="cls-1" d="M440.8,317.61h11.95v41.13h21.38v9.77h-33.33v-50.91Z"/>
  <path class="cls-1" d="M480.89,320.07c0-3.16,2.74-5.7,6.12-5.7s6.19,2.53,6.19,5.7-2.81,5.7-6.19,5.7-6.12-2.53-6.12-5.7ZM481.03,330.34h11.88v38.18h-11.88v-38.18Z"/>
  <path class="cls-1" d="M501.3,317.61h11.81v19.27h.28c1.48-3.45,4.71-7.03,10.83-7.03,8.02,0,15.26,6.19,15.26,19.62s-6.82,19.62-15.33,19.62c-5.84,0-9.21-3.3-10.76-6.75h-.35v6.19h-11.74v-50.91ZM520.14,359.8c4.57,0,7.17-4.08,7.17-10.41s-2.53-10.27-7.17-10.27-7.24,3.94-7.24,10.27,2.67,10.41,7.24,10.41Z"/>
  <path class="cls-1" d="M546.46,330.34h11.53v6.89h.35c1.41-4.99,4.78-7.45,9-7.45,1.12,0,2.39.21,3.38.42v10.34c-1.12-.35-3.23-.56-4.71-.56-4.43,0-7.66,3.09-7.66,7.66v20.88h-11.88v-38.18Z"/>
  <path class="cls-1" d="M587.22,345.95c2.74-.18,7.52-.35,9.14-.42v-3.09c0-2.67-1.97-4.15-5.2-4.15s-5.13,1.34-5.62,3.87h-11.04c.49-6.75,6.26-12.3,16.95-12.3,9.42,0,16.8,4.5,16.8,12.73v25.95h-11.18v-5.34h-.28c-2.11,3.87-5.77,6.05-11.11,6.05-7.31,0-12.59-3.73-12.59-11.32,0-8.44,6.54-11.46,14.13-11.95ZM589.26,361.35c4.01,0,7.24-2.6,7.17-6.4v-2.46c-1.44.07-5.48.25-7.24.42-2.95.35-4.85,1.97-4.85,4.5s2.04,3.94,4.92,3.94Z"/>
  <path class="cls-1" d="M616.21,330.34h11.53v6.89h.35c1.41-4.99,4.78-7.45,9-7.45,1.12,0,2.39.21,3.38.42v10.34c-1.12-.35-3.23-.56-4.71-.56-4.43,0-7.66,3.09-7.66,7.66v20.88h-11.88v-38.18Z"/>
  <path class="cls-1" d="M648.14,382.65v-9c1.55.14,3.23.14,4.64.14,1.97,0,3.45-.21,4.5-2.74l.42-1.2-13.57-39.52h12.38l7.24,27.42h.42l7.24-27.42h12.52l-14.48,41.91c-2.11,6.26-6.47,10.62-15.4,10.62-2.25,0-4.36-.07-5.91-.21Z"/>
</svg>