<?xml version="1.0" encoding="UTF-8"?>
<svg id="_레이어_1" data-name="레이어 1" xmlns="http://www.w3.org/2000/svg" viewBox="0 0 359.46 57.24">
  <defs>
    <style>
      .cls-1 {
        fill: #000;
        stroke-width: 0px;
      }
    </style>
  </defs>
  <path class="cls-1" d="M13.67,41.83c.19.51.5.9.94,1.19.44.28,1.05.52,1.83.72v.03H0v-.03c.84-.23,1.49-.5,1.96-.79s.8-.7.98-1.23c.19-.53.28-1.23.28-2.11V5.63c0-.88-.09-1.58-.28-2.11s-.51-.94-.98-1.25c-.47-.3-1.12-.56-1.96-.78v-.03h16.44v.03c-.78.2-1.39.44-1.83.72s-.75.67-.94,1.17-.28,1.17-.28,2.01v34.45c0,.82.1,1.49.28,1.99ZM13.16,22.12v-.03l2.64-.12v.23l-2.64-.08ZM15.65,22.06l10.58-12.33c1.76-2.07,2.97-3.66,3.65-4.78s.87-1.92.6-2.42c-.27-.5-.95-.84-2.02-1.04v-.03h9.81v.03c-1.04.31-2.05.75-3.05,1.32s-2.04,1.28-3.12,2.14-2.28,1.92-3.59,3.19c-1.21,1.13-2.33,2.22-3.35,3.27-1.03,1.04-1.95,1.99-2.77,2.83l11.16,21.18c1.09,2.05,2,3.63,2.72,4.75.72,1.11,1.36,1.93,1.92,2.45s1.12.89,1.68,1.13v.03h-12.66l-11.56-21.72Z"/>
  <path class="cls-1" d="M49.47,42.49c-2.43-1.16-4.37-2.83-5.8-5.01-1.44-2.18-2.15-4.78-2.15-7.81s.71-5.43,2.12-7.63c1.42-2.2,3.33-3.92,5.74-5.16s5.11-1.86,8.1-1.86,5.66.58,8.09,1.74c2.42,1.16,4.35,2.83,5.79,5s2.15,4.77,2.15,7.79-.7,5.44-2.11,7.65c-1.41,2.21-3.32,3.93-5.73,5.17-2.41,1.24-5.11,1.86-8.1,1.86-2.97,0-5.67-.57-8.1-1.74ZM60.84,42.39c.87-1.17,1.52-2.84,1.96-5s.66-4.71.66-7.66-.23-5.69-.69-7.87-1.14-3.85-2.04-5.01-1.98-1.74-3.25-1.74-2.4.58-3.27,1.74c-.87,1.16-1.53,2.82-1.98,4.98s-.67,4.71-.67,7.66.23,5.69.7,7.88,1.15,3.86,2.04,5.02,1.98,1.74,3.27,1.74c1.31.02,2.4-.57,3.27-1.74Z"/>
  <path class="cls-1" d="M88.45,20.8c.72-1.8,1.92-3.21,3.59-4.23s3.68-1.54,6.02-1.54c2.81,0,5.11.69,6.9,2.07s2.68,3.68,2.68,6.9v16.2c0,1.13.17,1.93.51,2.39s1.12.85,2.33,1.16v.03h-14.77v-.03c1.09-.25,1.8-.6,2.11-1.03s.47-1.19.47-2.29v-16.61c0-2.05-.42-3.55-1.26-4.5s-2.07-1.42-3.69-1.42c-1.11,0-2.09.26-2.93.78s-1.49,1.24-1.96,2.15v19.6c0,1.09.15,1.86.45,2.29.3.43,1.01.77,2.12,1.03v.03h-14.77v-.03c1.17-.29,1.94-.67,2.3-1.14s.54-1.27.54-2.4V4.97c0-1.02-.1-1.69-.31-2.02-.21-.33-.71-.67-1.51-1.03l-1.03-.41v-.05l12.19-1.46v20.8h.02Z"/>
  <path class="cls-1" d="M113.15,16.11c1.23-.25,2.29-.81,3.16-1.67.88-.86,1.32-1.98,1.32-3.37,0-1.15-.42-2.12-1.27-2.92s-1.93-1.22-3.24-1.27c0-1.04.19-2,.56-2.9s.91-1.63,1.63-2.2c.71-.57,1.59-.85,2.62-.85,1.45,0,2.61.56,3.49,1.67s1.32,2.49,1.32,4.13-.44,3.18-1.33,4.56c-.89,1.38-2.07,2.49-3.53,3.34s-3.04,1.36-4.72,1.54v-.06h-.01Z"/>
  <path class="cls-1" d="M128.12,19.25c1.05-1.37,2.55-2.41,4.5-3.12,1.94-.71,4.21-1.07,6.81-1.07,1.84,0,3.46.14,4.86.41,1.41.27,2.4.6,2.99.97l.09,7.76h-.03c-.61-2.93-1.61-5.17-3-6.72-1.4-1.55-3.03-2.33-4.91-2.33-1.76,0-3.08.42-3.96,1.26-.88.84-1.32,1.88-1.32,3.11s.42,2.24,1.27,2.97,2.09,1.42,3.74,2.07l2.11.82c2.56,1.02,4.52,2.3,5.87,3.84,1.36,1.54,2.04,3.51,2.04,5.89,0,2.01-.6,3.7-1.79,5.05-1.19,1.36-2.76,2.38-4.72,3.06-1.95.68-4.08,1.03-6.39,1.03-1.21,0-2.42-.08-3.63-.25s-2.32-.4-3.34-.7-1.83-.64-2.43-1.01l-.38-8.73h.03c.47,2.19,1.23,4.08,2.3,5.67,1.06,1.59,2.27,2.81,3.6,3.66,1.34.85,2.62,1.27,3.85,1.27,1.62,0,2.9-.42,3.84-1.27s1.41-1.9,1.41-3.15c0-1.33-.4-2.41-1.2-3.25-.8-.84-2.01-1.58-3.63-2.23l-2.11-.82c-2.54-1.02-4.52-2.24-5.93-3.68-1.42-1.44-2.12-3.28-2.12-5.52,0-1.97.52-3.63,1.58-4.99Z"/>
  <path class="cls-1" d="M164.59,43.77v-.03c.84-.23,1.49-.5,1.96-.79s.8-.7.98-1.23c.19-.53.28-1.23.28-2.11V5.63c0-.88-.09-1.58-.28-2.11s-.51-.94-.98-1.25c-.47-.3-1.12-.56-1.96-.78v-.03h16.9v.03c-.96.18-1.69.44-2.2.78s-.85.82-1.04,1.44-.28,1.41-.28,2.39v37.65l3.4-.21c2.17-.14,4.03-.46,5.6-.97,1.56-.51,2.88-1.23,3.94-2.18s1.94-2.15,2.64-3.6c.69-1.45,1.27-3.2,1.74-5.23h.04l-.5,12.22h-30.24Z"/>
  <path class="cls-1" d="M209.3,40.19c0,1.13.18,1.93.54,2.4.36.47,1.12.85,2.27,1.14v.03h-15v-.03c1.17-.29,1.94-.67,2.3-1.14s.54-1.27.54-2.4v-20.13c0-1.02-.1-1.69-.31-2.04-.21-.34-.71-.68-1.51-1.01l-1.03-.41v-.06l12.19-1.44v25.09h.01ZM201.01,10.56c-.88-.81-1.32-1.8-1.32-2.97s.44-2.21,1.32-3.01,1.94-1.2,3.17-1.2,2.31.4,3.18,1.2c.87.8,1.31,1.8,1.31,3.01s-.44,2.16-1.31,2.97-1.93,1.21-3.18,1.21c-1.24,0-2.29-.4-3.17-1.21Z"/>
  <path class="cls-1" d="M244.66,37.57c-1.23,2.2-2.85,3.86-4.85,4.98s-4.2,1.68-6.58,1.68c-1.91,0-3.55-.38-4.92-1.14-1.37-.76-2.27-1.79-2.7-3.08l-3.63,3.75h-5.68V4.94c0-1.02-.1-1.69-.29-2.02-.2-.33-.7-.67-1.52-1.03l-1-.41v-.02l12.16-1.46v20.74c.68-1.82,1.85-3.22,3.49-4.22s3.55-1.49,5.74-1.49,4.04.55,5.8,1.66c1.76,1.1,3.17,2.72,4.23,4.86s1.6,4.77,1.6,7.9c0,3.21-.62,5.92-1.85,8.12ZM235.96,23.64c-.57-1.88-1.33-3.3-2.29-4.28-.96-.98-2.05-1.46-3.28-1.46-1.13,0-2.08.26-2.84.78s-1.4,1.23-1.9,2.12v19.19c.33.8.9,1.47,1.7,2.01.8.54,1.67.81,2.61.81,1.39,0,2.59-.48,3.62-1.45s1.82-2.37,2.39-4.22.85-4.08.85-6.69c-.01-2.67-.29-4.93-.86-6.81Z"/>
  <path class="cls-1" d="M261.39,23.55c1.31-2.97,2.56-5.11,3.75-6.43s2.46-1.98,3.81-1.98c1.19,0,2.09.42,2.7,1.27s.91,1.89.91,3.12c0,.59-.06,1.14-.19,1.67s-.28.95-.45,1.26c-.37-.14-.93-.26-1.68-.38s-1.56-.18-2.42-.18c-1.31,0-2.54.15-3.71.45-1.16.3-2.07.71-2.71,1.22l.03,16.55c0,.76.07,1.37.22,1.82.15.45.45.81.91,1.07s1.12.5,1.98.72v.03h-15.31v-.03c1.21-.27,1.99-.64,2.33-1.1s.51-1.23.51-2.3v-20.27c0-1.02-.11-1.7-.32-2.05s-.71-.68-1.49-1l-1.03-.41v-.06l12.16-1.44v8.45Z"/>
  <path class="cls-1" d="M277.39,42.48c-1.52-1.17-2.29-2.8-2.29-4.89,0-1.41.41-2.66,1.22-3.75s2.11-2.05,3.91-2.86c1.8-.81,4.15-1.49,7.06-2.04l5.71-1.11v.06l-2.11.5c-1.66.39-2.97.95-3.93,1.67-.96.72-1.64,1.6-2.04,2.62s-.6,2.19-.6,3.5c0,1.82.4,3.2,1.19,4.15s1.77,1.42,2.94,1.42c.94,0,1.73-.21,2.39-.62s1.16-1.06,1.51-1.96v-15.32c0-2.89-.64-4.96-1.93-6.2-1.29-1.24-3.14-1.86-5.57-1.86-1.46,0-2.84.27-4.13.81s-2.33,1.26-3.12,2.18-1.2,1.94-1.22,3.08h-.03c.04-1.09.46-2.03,1.26-2.81.8-.78,1.69-1.17,2.67-1.17,1.15,0,2.12.39,2.92,1.17.79.78,1.19,1.76,1.19,2.93s-.4,2.07-1.2,2.86-1.74,1.19-2.81,1.19-2.04-.4-2.84-1.19-1.2-1.74-1.2-2.86c0-1.27.47-2.43,1.42-3.47s2.33-1.88,4.16-2.52c1.83-.63,4.04-.95,6.64-.95,4,0,7.15.74,9.43,2.23,2.29,1.48,3.43,3.82,3.43,7v15.06c0,1.23.26,2.13.78,2.71s1.18.86,1.98.86c.33,0,.63-.04.91-.12v.03c-.55.37-1.35.68-2.42.94s-2.19.38-3.38.38-2.2-.18-3.21-.53-1.85-.89-2.52-1.63-1.07-1.66-1.19-2.77c-.2,1.04-.72,1.93-1.57,2.68s-1.93,1.33-3.24,1.74-2.76.62-4.37.62c-2.35,0-4.28-.59-5.8-1.76Z"/>
  <path class="cls-1" d="M318.14,23.55c1.31-2.97,2.56-5.11,3.75-6.43s2.46-1.98,3.81-1.98c1.19,0,2.09.42,2.7,1.27s.91,1.89.91,3.12c0,.59-.06,1.14-.19,1.67s-.28.95-.45,1.26c-.37-.14-.93-.26-1.68-.38s-1.56-.18-2.42-.18c-1.31,0-2.54.15-3.71.45-1.16.3-2.07.71-2.71,1.22l.03,16.55c0,.76.07,1.37.22,1.82.15.45.45.81.91,1.07s1.12.5,1.98.72v.03h-15.29v-.03c1.21-.27,1.99-.64,2.33-1.1s.51-1.23.51-2.3v-20.27c0-1.02-.11-1.7-.32-2.05s-.71-.68-1.49-1l-1.03-.41v-.06l12.16-1.44v8.45h-.02Z"/>
  <path class="cls-1" d="M332.41,17.55c-.39-.62-.8-1.08-1.23-1.38s-.96-.51-1.58-.64v-.03h16.82v.03c-1.52.25-2.39.78-2.59,1.57s.04,2.27.75,4.44l4.57,13.36,4.25-13.15c.49-1.52.77-2.7.83-3.52s-.11-1.43-.53-1.82c-.42-.39-1.12-.68-2.09-.88v-.03h7.85v.03c-.64.16-1.21.43-1.7.82s-.98,1.01-1.48,1.85-1.07,2.04-1.71,3.6l-5.36,13.12-4.54,10.69-4.07,11.63h-5.57v-.03c1.11-.86,2.28-1.95,3.5-3.27s2.37-2.72,3.46-4.2c1.08-1.48,1.96-2.86,2.62-4.13l-10.87-25.4c-.5-1.15-.94-2.04-1.33-2.66Z"/>
</svg>