<?xml version="1.0" encoding="UTF-8"?>
<svg id="_레이어_2" data-name="레이어 2" xmlns="http://www.w3.org/2000/svg" viewBox="0 0 321.54 146.36">
  <defs>
    <style>
      .cls-1 {
        fill: #231815;
      }

      .cls-1, .cls-2 {
        stroke-width: 0px;
      }

      .cls-3 {
        fill: #00ff0a;
        stroke: #00ff0a;
        stroke-miterlimit: 10;
        stroke-width: .75px;
      }

      .cls-2 {
        fill: #221714;
      }
    </style>
  </defs>
  <g id="_레이어_1-2" data-name="레이어 1">
    <path class="cls-2" d="M11.01,79.24L0,48.37l5.58-1.46,8.33,22.16,9.72-26.88,8.49-2.22-15.19,39.45v26.98l-5.92-1.49v-25.67Z"/>
    <path class="cls-2" d="M67.7,93.65l-31.74-3.42c.22,3.85,1.2,7.05,2.96,9.64,1.81,2.62,4.19,4.23,7.2,4.82,2.43.47,4.5.17,6.17-.93,1.68-1.13,3.64-3.48,5.89-7.1l10,7.53c-1.62,2.63-3.31,4.77-5.04,6.46s-3.49,2.88-5.36,3.72c-1.83.81-3.75,1.24-5.77,1.3s-4.05-.21-6.24-.78c-5.94-1.55-10.38-4.94-13.56-10.07-3.04-4.93-4.51-10.82-4.51-17.81s1.43-12.56,4.37-16.99c3.1-4.57,7.43-7.16,13.2-7.63,6.3-.51,11.67,1.56,15.85,6.41,4.36,5.07,6.63,12.39,6.63,21.77l-.06,3.09ZM55.75,82.36c-1.5-6.54-5-9.72-10.26-9.65-1.15.02-2.21.24-3.19.67-.97.42-1.84,1.02-2.61,1.79s-1.42,1.67-1.95,2.73c-.53,1.05-.94,2.24-1.21,3.57l19.23.9Z"/>
    <path class="cls-2" d="M94.43,20.79v92.63l43.72,7.84v18.5l-60.78-15.33V25.25l17.06-4.46Z"/>
    <path class="cls-1" d="M310.53,104.08l-5.92,1.49v-26.98s-15.19-39.45-15.19-39.45l8.49,2.22,9.72,26.88,8.33-22.16,5.58,1.46-11.01,30.87v25.67Z"/>
    <path class="cls-1" d="M253.78,89.73c0-9.38,2.27-16.7,6.63-21.77,4.18-4.85,9.54-6.92,15.85-6.41,5.77.47,10.1,3.05,13.2,7.63,2.95,4.44,4.37,10.06,4.37,16.99,0,7-1.47,12.88-4.51,17.81-3.18,5.13-7.62,8.51-13.56,10.07-2.18.57-4.27.83-6.24.78s-3.95-.49-5.77-1.3c-1.87-.84-3.66-2.07-5.36-3.72s-3.42-3.83-5.04-6.46l10-7.53c2.25,3.62,4.21,5.97,5.89,7.1,1.68,1.1,3.74,1.4,6.17.93,3.01-.59,5.4-2.2,7.2-4.82,1.76-2.58,2.74-5.78,2.96-9.64l-31.74,3.42-.06-3.09ZM285.02,80.63c-.28-1.33-.68-2.52-1.21-3.57-.54-1.06-1.19-1.96-1.95-2.73s-1.64-1.37-2.61-1.79c-.98-.43-2.04-.65-3.19-.67-5.26-.07-8.76,3.12-10.26,9.65l19.23-.9Z"/>
    <path class="cls-1" d="M244.18,24.42v99.18s-60.78,15.33-60.78,15.33v-18.5s43.72-7.84,43.72-7.84V19.96s17.06,4.46,17.06,4.46Z"/>
    <g>
      <path class="cls-3" d="M160.27,140.09l-9.78,5.62v-2.99l6.88-3.94-6.88-3.95v-2.99l9.78,5.65h7.44v2.6h-7.44Z"/>
      <path class="cls-3" d="M162.2,132.4c-1.57,0-2.9-.56-4.01-1.68s-1.65-2.49-1.65-4.11.55-3,1.66-4.13c1.11-1.12,2.47-1.67,4.08-1.67s2.99.56,4.09,1.68c1.09,1.13,1.64,2.52,1.64,4.16s-.56,2.99-1.67,4.09c-1.1,1.1-2.48,1.65-4.15,1.65ZM162.24,129.83c1.09,0,1.94-.29,2.58-.87.64-.6.96-1.38.96-2.35s-.32-1.77-.95-2.35-1.48-.88-2.53-.88-1.9.29-2.53.88c-.64.6-.96,1.38-.96,2.35s.32,1.74.96,2.33,1.47.89,2.48.89Z"/>
      <path class="cls-3" d="M156.84,115.64h6.24c1.8,0,2.7-.71,2.7-2.13s-.9-2.13-2.7-2.13h-6.24v-2.51h6.29c.87,0,1.62.11,2.25.32.57.21,1.07.57,1.53,1.08.74.85,1.1,1.93,1.1,3.24s-.37,2.38-1.1,3.22c-.45.52-.96.89-1.53,1.1-.51.21-1.26.31-2.25.31h-6.29v-2.51Z"/>
      <path class="cls-3" d="M156.84,105.7v-2.51h.97c-.48-.46-.81-.87-.99-1.23-.19-.36-.28-.8-.28-1.29,0-.66.22-1.35.65-2.08l2.3,1.15c-.34.48-.51.94-.51,1.39,0,1.37,1.03,2.05,3.1,2.05h5.63v2.51h-10.87Z"/>
      <path class="cls-3" d="M162.87,80.21v7.79c.89-.07,1.6-.36,2.13-.87.52-.51.78-1.17.78-1.97,0-.62-.15-1.14-.45-1.55-.3-.4-.85-.86-1.65-1.37l1.18-2.12c.56.33,1.04.67,1.43,1.04s.73.75.98,1.17.44.87.56,1.35.18,1.01.18,1.57c0,1.62-.52,2.92-1.56,3.9-1.05.98-2.44,1.47-4.17,1.47s-3.11-.48-4.17-1.43c-1.05-.96-1.57-2.23-1.57-3.82s.51-2.86,1.53-3.79c1.01-.92,2.41-1.38,4.21-1.38h.59ZM160.81,82.78c-1.34.35-2.01,1.19-2.01,2.53,0,.3.05.59.14.86s.23.51.4.73.38.41.63.56.52.28.84.36v-5.04Z"/>
      <path class="cls-3" d="M161.09,79.05v-4.98h2.19v4.98h-2.19Z"/>
      <path class="cls-3" d="M150.48,69.41h14.78v-5.07h2.44v7.66h-17.23v-2.6Z"/>
      <path class="cls-3" d="M152.32,62.74c-.44,0-.82-.16-1.14-.48s-.48-.7-.48-1.15.16-.84.48-1.16c.31-.32.7-.48,1.15-.48s.84.16,1.16.48c.32.31.48.7.48,1.15s-.16.84-.48,1.16-.71.48-1.17.48ZM156.84,59.85h10.87v2.51h-10.87v-2.51Z"/>
      <path class="cls-3" d="M148.86,54.16h9.24c-1.04-1-1.56-2.14-1.56-3.41,0-1.47.55-2.69,1.64-3.66,1.09-.97,2.44-1.46,4.06-1.46s3.06.49,4.15,1.47c1.09.97,1.63,2.21,1.63,3.69,0,1.26-.48,2.38-1.45,3.37h1.14v2.51h-18.84v-2.51ZM162.35,48.19c-1.04,0-1.89.28-2.54.85-.67.57-1,1.29-1,2.15,0,.92.32,1.67.97,2.25.64.57,1.47.86,2.5.86s1.9-.28,2.53-.85c.65-.57.97-1.31.97-2.23,0-.87-.32-1.59-.97-2.16-.65-.58-1.47-.87-2.45-.87Z"/>
      <path class="cls-3" d="M156.84,42.97v-2.51h.97c-.48-.46-.81-.87-.99-1.23-.19-.36-.28-.8-.28-1.29,0-.66.22-1.35.65-2.08l2.3,1.15c-.34.48-.51.94-.51,1.39,0,1.37,1.03,2.05,3.1,2.05h5.63v2.51h-10.87Z"/>
      <path class="cls-3" d="M156.84,26.57v-2.52h10.87v2.52h-1.14c.97,1.03,1.45,2.15,1.45,3.34,0,1.5-.54,2.74-1.63,3.73-1.11.97-2.49,1.46-4.15,1.46s-2.99-.49-4.07-1.46-1.63-2.19-1.63-3.66c0-1.26.52-2.4,1.56-3.4h-1.26ZM162.24,32.52c1.04,0,1.89-.28,2.54-.84.66-.57.99-1.29.99-2.16,0-.93-.32-1.68-.96-2.25-.66-.57-1.5-.86-2.52-.86s-1.86.29-2.52.86c-.65.57-.97,1.32-.97,2.23,0,.86.33,1.58.98,2.16.66.57,1.48.86,2.45.86Z"/>
      <path class="cls-3" d="M156.84,20.88v-2.51h.97c-.48-.46-.81-.87-.99-1.23-.19-.36-.28-.8-.28-1.29,0-.66.22-1.35.65-2.08l2.3,1.15c-.34.48-.51.94-.51,1.39,0,1.37,1.03,2.05,3.1,2.05h5.63v2.51h-10.87Z"/>
      <path class="cls-3" d="M165.69,7.9l-8.85,4.89v-2.91l6.25-3.32-6.25-3.1V.62l16.78,8.66v2.87l-7.93-4.24Z"/>
    </g>
  </g>
</svg>