<?xml version="1.0" encoding="utf-8"?>
<!-- Generator: Adobe Illustrator 28.3.0, SVG Export Plug-In . SVG Version: 6.00 Build 0)  -->
<svg version="1.1" id="레이어_1" xmlns="http://www.w3.org/2000/svg" xmlns:xlink="http://www.w3.org/1999/xlink" x="0px"
	 y="0px" viewBox="0 0 595.28 841.89" style="enable-background:new 0 0 595.28 841.89;" xml:space="preserve">
<style type="text/css">
	.st0{fill:none;}
	.st1{enable-background:new    ;}
</style>
<g>
	<rect x="86.22" y="128.86" class="st0" width="284.81" height="165.78"/>
</g>
<g class="st1">
	<path d="M118.26,201.92l-32.37-56.39h17.22l22.71,39.72l22.71-39.72h17.22l-32.48,56.39v42.9h-15.03L118.26,201.92L118.26,201.92z"
		/>
	<path d="M162.58,213.01c0-9,3.18-16.79,9.65-23.04c6.47-6.25,14.37-9.54,23.7-9.54s17.22,3.18,23.81,9.54
		c6.47,6.36,9.65,14.26,9.65,23.48c0,9.44-3.18,17.22-9.65,23.59c-6.47,6.25-14.48,9.44-24.03,9.44c-9.44,0-17.22-3.18-23.59-9.65
		C165.76,230.56,162.58,222.66,162.58,213.01z M177.39,213.33c0,6.25,1.65,11.19,5.05,14.81c3.4,3.73,7.9,5.49,13.6,5.49
		s10.2-1.87,13.6-5.49c3.4-3.62,5.05-8.56,5.05-14.59c0-6.03-1.65-10.97-5.05-14.59c-3.4-3.73-7.9-5.49-13.6-5.49
		c-5.49,0-9.98,1.87-13.38,5.49C179.26,202.58,177.39,207.41,177.39,213.33z"/>
	<path d="M259.13,182.18v35.99c0,10.42,4.06,15.58,12.29,15.58s12.29-5.16,12.29-15.58v-35.99h14.48v36.21
		c0,5.05-0.66,9.33-1.87,12.95c-1.21,3.29-3.29,6.14-6.25,8.78c-4.94,4.28-11.08,6.36-18.65,6.36c-7.46,0-13.71-2.08-18.54-6.36
		c-2.96-2.63-5.16-5.6-6.36-8.78c-1.21-2.96-1.76-7.24-1.76-12.95v-36.21H259.13z"/>
	<path d="M316.4,182.18h14.48v5.6c2.63-2.74,5.05-4.72,7.02-5.71c2.08-1.1,4.61-1.65,7.46-1.65c3.84,0,7.79,1.21,11.96,3.73
		l-6.58,13.28c-2.74-1.97-5.38-2.96-8.01-2.96c-7.9,0-11.85,5.92-11.85,17.88v32.48H316.4L316.4,182.18L316.4,182.18z"/>
</g>
<g>
	<rect x="469.45" y="264.02" class="st0" width="284.81" height="165.78"/>
</g>
<g class="st1">
	<path d="M536.15,294.74h-39.83v23.81h38.62v14.04h-38.62v33.13h39.83v14.04h-54.75v-99.29h54.75V294.74z"/>
</g>
<g>
	<rect x="112.88" y="608.52" class="st0" width="429.09" height="165.78"/>
</g>
<g class="st1">
	<path d="M139.76,625.2v85.14h29.18v14.15h-44.21V625.2H139.76z"/>
	<path d="M178.16,635.84c0-2.52,0.88-4.72,2.74-6.58c1.87-1.87,4.06-2.74,6.58-2.74c2.63,0,4.83,0.88,6.69,2.74
		c1.87,1.76,2.74,4.06,2.74,6.58s-0.88,4.83-2.74,6.69c-1.76,1.87-4.06,2.74-6.58,2.74s-4.83-0.88-6.69-2.74
		S178.16,638.47,178.16,635.84z M194.84,661.84v62.65h-14.48v-62.65H194.84z"/>
	<path d="M227.64,615.87v53.21c5.81-6.03,12.29-9,19.64-9c8.45,0,15.47,3.18,21.06,9.44c5.6,6.25,8.45,14.04,8.45,23.37
		c0,9.65-2.85,17.66-8.45,23.92c-5.6,6.25-12.73,9.44-21.28,9.44c-7.24,0-13.71-2.74-19.42-8.34v6.58h-14.48V615.87L227.64,615.87
		L227.64,615.87z M262.09,693.66c0-6.03-1.65-10.86-4.94-14.7c-3.29-3.84-7.46-5.81-12.4-5.81c-5.27,0-9.65,1.87-12.95,5.6
		c-3.29,3.73-4.94,8.45-4.94,14.37c0,6.03,1.65,10.97,4.94,14.59c3.29,3.73,7.57,5.6,12.84,5.6c5.05,0,9.22-1.87,12.51-5.6
		C260.33,703.97,262.09,699.25,262.09,693.66z"/>
	<path d="M292.15,661.84h14.48v5.6c2.63-2.74,5.05-4.72,7.02-5.71c2.08-1.1,4.61-1.65,7.46-1.65c3.84,0,7.79,1.21,11.96,3.73
		l-6.58,13.28c-2.74-1.97-5.38-2.96-8.01-2.96c-7.9,0-11.85,5.92-11.85,17.88v32.48h-14.48L292.15,661.84L292.15,661.84z"/>
	<path d="M386.61,661.84h14.48v62.65h-14.48v-6.58c-5.92,5.6-12.4,8.34-19.2,8.34c-8.67,0-15.8-3.18-21.5-9.44
		c-5.6-6.36-8.45-14.37-8.45-23.92c0-9.44,2.85-17.22,8.45-23.48s12.62-9.44,21.06-9.44c7.24,0,13.82,2.96,19.64,9L386.61,661.84
		L386.61,661.84z M352.27,693c0,6.03,1.65,10.86,4.83,14.7c3.29,3.84,7.46,5.7,12.51,5.7c5.38,0,9.65-1.87,12.95-5.49
		c3.29-3.84,4.94-8.67,4.94-14.48s-1.65-10.75-4.94-14.48c-3.29-3.73-7.57-5.6-12.84-5.6c-4.94,0-9.11,1.87-12.51,5.71
		C353.92,682.69,352.27,687.4,352.27,693z"/>
	<path d="M419.42,661.84h14.48v5.6c2.63-2.74,5.05-4.72,7.02-5.71c2.08-1.1,4.61-1.65,7.46-1.65c3.84,0,7.79,1.21,11.96,3.73
		l-6.58,13.28c-2.74-1.97-5.38-2.96-8.01-2.96c-7.9,0-11.85,5.92-11.85,17.88v32.48h-14.48L419.42,661.84L419.42,661.84z"/>
	<path d="M494.13,712.86l-28.2-51.02h16.79l19.2,35.99l17.88-35.99h16.35l-49.92,96.66h-16.57L494.13,712.86z"/>
</g>
<g>
	<rect x="17.76" y="187.55" class="st0" width="165.78" height="429.09"/>
</g>
<g class="st1">
	<path d="M90.83,584.6l-56.39,32.37v-17.22l39.72-22.71l-39.72-22.71V537.1l56.39,32.48h42.9v15.03L90.83,584.6L90.83,584.6z"/>
	<path d="M105.86,479.83v44.87c5.16-0.44,9.22-2.08,12.29-5.05c2.96-2.96,4.5-6.8,4.5-11.41c0-3.62-0.88-6.58-2.52-8.89
		c-1.76-2.3-4.94-4.94-9.54-7.9l6.8-12.18c3.18,1.87,5.92,3.84,8.23,5.92c2.3,2.08,4.17,4.39,5.71,6.8
		c1.54,2.41,2.52,5.05,3.29,7.79s0.99,5.81,0.99,9.11c0,9.33-2.96,16.9-9,22.49c-6.03,5.71-14.04,8.45-24.03,8.45
		c-9.87,0-17.88-2.74-24.03-8.23c-6.03-5.49-9.11-12.84-9.11-21.94c0-9.22,2.96-16.46,8.78-21.83c5.81-5.27,13.93-8.01,24.25-8.01
		H105.86z M94.01,494.75c-7.68,1.97-11.52,6.91-11.52,14.59c0,1.76,0.22,3.4,0.77,4.94c0.55,1.54,1.32,2.96,2.3,4.17
		s2.19,2.3,3.62,3.29c1.43,0.99,3.07,1.54,4.83,2.08L94.01,494.75L94.01,494.75z"/>
	<path d="M34.44,446.25h85.14v-29.18h14.04v44.21H34.33v-15.03H34.44z"/>
</g>
<g>
	<line class="st0" x1="438.62" y1="187.77" x2="660.02" y2="185.25"/>
</g>
<g>
	<rect x="367.41" y="187.55" width="165.01" height="10.97"/>
</g>
<g>
	<rect x="121.55" y="264.02" width="10.97" height="138.02"/>
</g>
<g>
	<rect x="524.85" y="391.62" width="10.97" height="258.59"/>
</g>
<g>
	<rect x="524.85" y="187.55" width="10.97" height="80.53"/>
</g>
</svg>
