<?xml version="1.0" encoding="UTF-8"?>
<svg id="_레이어_1" data-name="레이어 1" xmlns="http://www.w3.org/2000/svg" viewBox="0 0 214.8 113.55">
  <defs>
    <style>
      .cls-1 {
        stroke-width: .75px;
      }

      .cls-1, .cls-2 {
        fill: #231815;
        stroke: #231815;
        stroke-miterlimit: 10;
      }
    </style>
  </defs>
  <path class="cls-1" d="M15.36,13.83l-.46.46c-.31.32-.48.5-.53.53-.12-.06-.23-.11-.32-.16-.09-.05-.18-.08-.25-.11-.46-.26-.91-.56-1.35-.9-.44-.34-.86-.71-1.28-1.13-.25-.25-.48-.52-.69-.82-.21-.3-.43-.62-.64-.98-.12-.2-.27-.51-.44-.92-.17.31-.33.57-.48.8s-.29.44-.41.62c-.21.29-.44.57-.69.84-.25.27-.51.53-.81.79-.72.66-1.52,1.25-2.39,1.77-.31.18-.68.39-1.1.62-.45-.31-.8-.55-1.07-.72-.27-.18-.4-.29-.4-.33l.09-.09c.81-.21,1.58-.55,2.3-1.01.72-.46,1.43-1.03,2.12-1.72,1.44-1.5,2.16-3.04,2.16-4.6l-2.74-.05c-.54,0-1.05.02-1.53.05-.48.03-.91.06-1.28.09v-1.45c.25.02.54.02.9.02s.77,0,1.27.02c.49.02.93.02,1.31.02h2.65c.92,0,1.77-.01,2.55-.03.78-.02,1.52-.05,2.21-.08.23,0,.52-.02.87-.07v1.5l-2.09-.09-2.58.05-.02.57c0,.61.09,1.17.26,1.68.18.51.42.97.72,1.4.67.94,1.55,1.76,2.62,2.46.35.25.84.51,1.45.81l.07.16ZM20.83,22.02l-7.5-.05c-1.23,0-2.51,0-3.84.02-1.33.02-2.57.04-3.7.07.02-.31.03-.68.03-1.13,0-.44.01-.82.01-1.13l-.05-3.54c.38,0,.77.02,1.17.07.43.05.64.15.64.3,0,.03-.03.13-.1.31-.07.18-.1.33-.1.45v3.22h8.5c.76,0,1.41,0,1.94-.02.55-.02,1.08-.03,1.58-.03.5,0,.97-.03,1.41-.06v1.52ZM11.47,3.71h-.48c-1.2-.05-1.85-.07-1.95-.07l-2.44.07v-1.38c.37.03.77.05,1.21.07.44.02.86.02,1.28.02.58,0,1.07,0,1.47-.02.4-.02.71-.04.92-.07v1.38ZM20.07,2.15s-.04.18-.12.4c-.08.22-.12.42-.12.59.02.54.02,1.11.02,1.71v1.94c.01.69.02,1.3.02,1.83v3.83c0,.71,0,1.31.02,1.82.02.49.02.97.02,1.43s0,.89.02,1.29c0,.26-.06.41-.18.45-.12.04-.36.06-.71.06l-.51.05c-.17,0-.25-.07-.25-.21v-6.97l-2.09-.02c-.35,0-.72,0-1.12.02-.39.02-.75.04-1.07.07v-1.4c.14.02.3.02.48.02s.4,0,.64.02c.23.02.43.02.61.02h.43l2.12-.09V3.53c0-.41-.02-.74-.05-.99s-.06-.47-.09-.67h.48c.51,0,.87.02,1.09.07s.33.11.33.21Z"/>
  <path class="cls-1" d="M38.36,13.83l-.46.46c-.31.32-.48.5-.53.53-.12-.06-.23-.11-.32-.16-.09-.05-.18-.08-.25-.11-.46-.26-.91-.56-1.35-.9-.44-.34-.86-.71-1.28-1.13-.25-.25-.48-.52-.69-.82-.21-.3-.43-.62-.64-.98-.12-.2-.27-.51-.44-.92-.17.31-.33.57-.48.8s-.29.44-.41.62c-.21.29-.44.57-.69.84-.25.27-.51.53-.81.79-.72.66-1.52,1.25-2.39,1.77-.31.18-.68.39-1.1.62-.45-.31-.8-.55-1.07-.72-.27-.18-.4-.29-.4-.33l.09-.09c.81-.21,1.58-.55,2.3-1.01.72-.46,1.43-1.03,2.12-1.72,1.44-1.5,2.16-3.04,2.16-4.6l-2.74-.05c-.54,0-1.05.02-1.53.05-.48.03-.91.06-1.28.09v-1.45c.25.02.54.02.9.02s.77,0,1.27.02c.49.02.93.02,1.31.02h2.65c.92,0,1.77-.01,2.55-.03.78-.02,1.52-.05,2.21-.08.23,0,.52-.02.87-.07v1.5l-2.09-.09-2.58.05-.02.57c0,.61.09,1.17.26,1.68.18.51.42.97.72,1.4.67.94,1.55,1.76,2.62,2.46.35.25.84.51,1.45.81l.07.16ZM43.83,22.02l-7.5-.05c-1.23,0-2.51,0-3.84.02-1.33.02-2.57.04-3.7.07.02-.31.03-.68.03-1.13,0-.44.01-.82.01-1.13l-.05-3.54c.38,0,.77.02,1.17.07.43.05.64.15.64.3,0,.03-.03.13-.1.31-.07.18-.1.33-.1.45v3.22h8.5c.76,0,1.41,0,1.94-.02.55-.02,1.08-.03,1.58-.03.5,0,.97-.03,1.41-.06v1.52ZM34.47,3.71h-.48c-1.2-.05-1.85-.07-1.95-.07l-2.44.07v-1.38c.37.03.77.05,1.21.07.44.02.86.02,1.28.02.58,0,1.07,0,1.47-.02.4-.02.71-.04.92-.07v1.38ZM43.07,2.15s-.04.18-.12.4c-.08.22-.12.42-.12.59.02.54.02,1.11.02,1.71v1.94c.01.69.02,1.3.02,1.83v3.83c0,.71,0,1.31.02,1.82.02.49.02.97.02,1.43s0,.89.02,1.29c0,.26-.06.41-.18.45-.12.04-.36.06-.71.06l-.51.05c-.17,0-.25-.07-.25-.21v-6.97l-2.09-.02c-.35,0-.72,0-1.12.02-.39.02-.75.04-1.07.07v-1.4c.14.02.3.02.48.02s.4,0,.64.02c.23.02.43.02.61.02h.43l2.12-.09V3.53c0-.41-.02-.74-.05-.99s-.06-.47-.09-.67h.48c.51,0,.87.02,1.09.07s.33.11.33.21Z"/>
  <path class="cls-1" d="M62.02,7.94l-6.97-.05c-.63,0-1.3,0-2.02.02-.72.02-1.5.04-2.32.07-.29.02-.61.03-.95.03-.34,0-.74.03-1.18.06v-1.54c.21,0,.56,0,1.04.01.48,0,1.08.02,1.82.03.74.02,1.32.02,1.76.02h1.74c1.17,0,2.38-.02,3.63-.06,1.26-.04,2.42-.08,3.47-.13v1.52ZM60.58,14.01c0,1.23-.48,2.2-1.43,2.92-.89.66-2.02.99-3.4.99-.78,0-1.5-.1-2.14-.29-.64-.19-1.19-.47-1.64-.84s-.8-.81-1.06-1.33c-.25-.52-.38-1.12-.38-1.79,0-1.27.54-2.26,1.61-2.97.95-.61,2.08-.92,3.38-.92,1.44,0,2.65.38,3.63,1.15.95.75,1.43,1.78,1.43,3.08ZM58.99,13.81c0-.78-.29-1.42-.87-1.91-.64-.52-1.52-.78-2.62-.78s-1.94.28-2.55.85c-.51.51-.76,1.15-.76,1.93,0,.83.27,1.5.8,2,.61.55,1.5.83,2.65.83s1.99-.33,2.62-.99c.49-.54.74-1.18.74-1.93ZM58.25,4.75l-2.48-.05-3.15.05v-1.38l3.06.07,2.58-.07v1.38ZM66.03,2.19c0,.14,0,.23-.02.28-.08.38-.11.61-.11.67v7.18l.09,12.21h-1.73v-10.14c0-1.92,0-3.5-.01-4.75,0-1.25-.01-2.19-.01-2.82-.02-1.2-.04-2.17-.07-2.92l1.5.07c.25,0,.37.08.37.23Z"/>
  <path class="cls-1" d="M72.4,23.9h-.92c.28-.58.48-1.11.62-1.58.14-.47.24-.99.3-1.58-.34-.15-.58-.32-.74-.51-.18-.2-.28-.52-.28-.97,0-.55.13-1,.38-1.35.25-.35.56-.52.91-.52s.63.2.83.59.3.84.3,1.35c0,.44-.04.89-.13,1.35s-.21.91-.38,1.37c-.11.26-.23.54-.38.84-.15.3-.32.63-.52,1Z"/>
  <path class="cls-1" d="M95.95,15.56c-1.46.32-3.02.57-4.7.74-1.68.17-3.32.25-4.91.25l-.11-11.29h.16c.51,0,.91.02,1.21.05.3.03.45.11.45.23,0,.03-.02.11-.05.23-.11.32-.16.61-.16.87l-.02,1.31.12,7.25c1.33,0,2.62-.07,3.86-.22,1.24-.15,2.55-.37,3.93-.68l.23,1.27ZM103.79,2.17s-.04.17-.11.4c-.08.24-.12.47-.12.7l.12,19.18-1.59.11.02-9.73h-3.7l.02,8.69-1.5.09-.02-17.27c0-.31,0-.58-.02-.83-.02-.25-.04-.47-.07-.67h.51c.4,0,.71.02.94.07.23.05.35.13.35.25,0,.05-.03.17-.09.37-.06.2-.09.38-.09.55l-.02,7.43,3.73-.05c0-1.06-.02-2.66-.07-4.81-.03-1.06-.05-1.99-.07-2.79-.02-.8-.02-1.48-.02-2.01h.55c.35,0,.65.02.9.06.25.04.37.12.37.24Z"/>
  <path class="cls-1" d="M130.31,15.26l-3.22.25c-.74.08-1.35.13-1.83.16-.48.03-.91.05-1.28.07v6.23l-1.75.14.07-6.3-5.22.11c-.09,0-.21.02-.34.07-.32.11-.52.16-.6.16-.11,0-.19-.06-.25-.17-.06-.12-.11-.26-.15-.44-.04-.18-.06-.37-.07-.59s-.01-.43-.01-.64c.11,0,.25,0,.44.02.18.02.41.04.67.07.26.03.48.05.66.07s.3.02.38.02l5.13-.12c1.76,0,3.51-.07,5.24-.21.29-.03.62-.06.98-.1.36-.04.75-.09,1.16-.15v1.33ZM129.23,11.39c-.08.11-.13.17-.16.18l-.9.99c-.21-.06-.42-.12-.61-.17-.19-.05-.39-.12-.59-.2-.44-.17-.83-.33-1.16-.49-.33-.16-.6-.33-.82-.49-.32-.26-.61-.51-.86-.74-.25-.23-.46-.47-.63-.71-.06-.08-.11-.15-.16-.23-.05-.08-.1-.17-.16-.28-.06.11-.12.2-.16.26-.05.07-.09.14-.14.22-.6.83-1.43,1.54-2.51,2.14-.35.18-.71.34-1.06.48s-.72.27-1.1.39c-.12.03-.26.07-.4.1-.15.04-.3.08-.47.13-.06-.08-.11-.15-.15-.22-.04-.07-.07-.12-.1-.15-.17-.21-.31-.37-.44-.47-.12-.1-.21-.19-.28-.26-.02-.02-.03-.03-.03-.05s-.03-.04-.06-.07c.14-.02.23-.04.28-.07.17-.03.31-.06.44-.09.12-.03.24-.06.34-.09,1.21-.35,2.2-.77,2.97-1.26.77-.49,1.33-1.09,1.7-1.79.11-.23.22-.53.35-.9l-5.36.07v-1.5c.26.03.67.06,1.23.08.56.02,1.24.03,2.04.03l8.9-.23v1.52l-2-.02-3.06.07c.03.11.06.22.09.32.03.11.06.21.09.32.26.52.74,1.05,1.43,1.59.26.21.56.41.91.59.34.18.74.35,1.18.52.15.05.33.1.52.15s.4.12.63.2c.05.03.08.05.11.07.03.02.06.03.09.05.03,0,.05,0,.07.02ZM125.14,4.38l-.92-.02-3.89.11v-1.47l2.37.07c.4,0,.81,0,1.24-.02.43-.02.83-.04,1.2-.07v1.4ZM133.39,2.38s-.01.11-.03.2c-.02.08-.05.18-.07.28s-.04.2-.06.29c-.02.09-.02.16-.02.21l-.07,10.01.05,9.2-1.75.02c.02-.38.02-.73.02-1.05v-.86c.05-3.59.07-6.33.07-8.21v-3.81c0-1.05,0-1.87-.02-2.47-.02-.61-.03-1.17-.03-1.68,0-.51-.01-.97-.01-1.38l-.05-1.24c.21.02.43.03.66.05.22.02.44.04.66.07.44.05.67.18.67.39Z"/>
  <path class="cls-1" d="M151.66,6.31l-6.55-.05c-1.03,0-2.09.02-3.2.05s-2.12.06-3.06.09v-1.4c.67.03,1.44.05,2.29.07.85.02,1.76.02,2.73.02h1.08c1.29,0,2.48-.02,3.59-.06,1.1-.04,2.15-.09,3.13-.15v1.43ZM150.25,10.45c0,.97-.42,1.71-1.25,2.22-.84.51-2,.77-3.51.77-1.73,0-3.02-.28-3.86-.84s-1.27-1.34-1.27-2.33.51-1.66,1.54-2.12c.44-.21.94-.37,1.5-.47.55-.1,1.16-.15,1.82-.15.75,0,1.43.07,2.05.2.61.13,1.14.32,1.59.56.44.25.79.55,1.03.91.25.36.37.78.37,1.25ZM155.57,18.73c0,1.32-.64,2.28-1.91,2.88-1.15.54-2.82.81-5.01.81-1.95,0-3.53-.29-4.74-.87-1.4-.66-2.09-1.61-2.09-2.85s.65-2.14,1.96-2.69c1.09-.48,2.71-.71,4.85-.71,2.02,0,3.63.25,4.83.76,1.41.58,2.12,1.48,2.12,2.69ZM148.62,10.56c0-.57-.26-1.01-.78-1.33-.54-.38-1.38-.58-2.53-.58s-1.97.17-2.52.52c-.54.35-.82.76-.82,1.25,0,.57.32,1.02.97,1.36.64.34,1.48.51,2.51.51,1.09,0,1.89-.16,2.4-.49.51-.33.77-.74.77-1.23ZM148.09,3.76h-2.83l-2.58.02v-1.36l2.69.07,2.71-.07v1.33ZM153.96,18.71c0-.8-.58-1.38-1.73-1.75-.95-.31-2.15-.46-3.59-.46-1.53,0-2.69.11-3.47.34-1.17.32-1.75.94-1.75,1.84,0,.83.49,1.44,1.47,1.84.87.34,2.11.51,3.7.51,1.79,0,3.14-.18,4.02-.55.89-.37,1.33-.96,1.33-1.77ZM158.37,13.14l-3.27-.05v2.09l-1.56.05v-.51c0-.26,0-.62.02-1.08.02-.46.02-.86.02-1.2v-.87l-.02-5.45c0-1.09,0-1.95-.02-2.59-.02-.64-.03-1.17-.05-1.6l1.43.09c.28,0,.41.12.41.35,0,.03-.01.09-.03.17-.02.08-.05.18-.07.3-.02.11-.05.23-.07.34-.02.12-.03.2-.03.26l-.02,3.79,3.27-.05v1.36l-3.24-.02v3.27l3.24-.02v1.36Z"/>
  <path class="cls-1" d="M172.65,16.38c-.32.06-.61.11-.86.14s-.48.06-.68.09c-.58.08-1.11.15-1.59.22-.48.07-.9.12-1.26.15-.72.08-1.43.15-2.13.21-.7.06-1.39.11-2.08.16-.22.02-.45.03-.69.05-.25.02-.51.03-.78.05l.05-6.23-.07-6.65,4.05.05h2.6c.48-.02.92-.04,1.33-.07v1.43h-3.15l-3.1.07-.05,4.95.07,4.94c.31-.03.58-.05.83-.07.25-.02.47-.03.67-.05,1.01-.09,2.02-.2,3.01-.31,1-.12,2.02-.26,3.06-.43.09-.02.2-.03.31-.05.11-.02.25-.04.4-.07l.07,1.43ZM180.22,22.27l-1.77.07c-.02-.21-.02-.47-.02-.76v-1.04c-.02-.38-.02-.71-.02-.99v-.67c0-.46,0-.92.01-1.38,0-.46.02-.91.03-1.36v-1.74c0-.3,0-.52-.02-.66v-.4c0-.11,0-.23-.02-.33h-3.17l-.05,3.22.07,4.76-1.63.07v-4.98c0-.87,0-1.87.02-3.02.02-1.15.02-2.15.02-2.99v-6.07l-.05-1.63h.53c.35,0,.65.03.9.08s.37.17.37.33c0,.05-.01.12-.03.22-.02.1-.05.2-.07.31-.02.11-.05.2-.07.29-.02.08-.03.15-.03.2v7.77h3.24V3.53c-.03-.2-.05-.44-.05-.74s0-.55-.02-.78c.05-.05.2-.07.46-.07h.21c.35,0,.63.02.83.07s.3.16.3.35c-.05.2-.08.38-.11.55-.03.17-.05.34-.05.51v9.98c0,.86,0,1.77.02,2.73.02.96.04,1.98.07,3.07.02.4.03.85.05,1.36s.04,1.08.07,1.73Z"/>
  <path class="cls-1" d="M204.37,20.36c-.25-.02-.48-.02-.7-.02h-.63c-2.9-.05-5.79-.07-8.67-.07h-2.98c-.9,0-1.71,0-2.45.02-.74.02-1.38.02-1.93.02s-1,0-1.36.02h-.92c-.26,0-.48,0-.64.02v-1.56l5.52.07h3.79l-.02-3.89-6.37.07.05-2.9-.05-3.36,6.65.05,6-.05v-2.99l-6.81-.02-5.96.05v-1.45h14.38c-.03.4-.05.84-.07,1.31-.02.48-.02.94-.02,1.4l.07,3.13-12.67.07v3.29l5.5.05h1.92c.67,0,1.33,0,2-.01.67,0,1.32-.02,1.95-.03s1.24-.03,1.81-.05v1.47l-6.83-.02v3.86l9.43-.02.02,1.54Z"/>
  <path class="cls-1" d="M15.4,34.67c-.52-.03-.99-.05-1.4-.06-.41,0-.77-.02-1.08-.03-.95-.03-1.8-.05-2.54-.07-.74-.01-1.39-.02-1.94-.02-1.03,0-2.09,0-3.2.02-1.1.02-2.12.04-3.04.07v-1.33c.44.02.94.03,1.47.03.54,0,1.13.03,1.77.06.64.02,1.2.03,1.68.03.48,0,.88.01,1.22.01,1.49,0,2.81,0,3.98-.02,1.17-.02,2.19-.04,3.08-.07v1.38ZM13.54,39.29c0,1-.41,1.8-1.22,2.4-.81.61-2.01.91-3.59.91-1.67,0-2.92-.32-3.74-.95-.82-.64-1.23-1.47-1.23-2.5,0-1.13.51-1.98,1.52-2.53.41-.25.9-.42,1.45-.53.55-.11,1.17-.16,1.86-.16,1.53,0,2.74.31,3.62.92s1.32,1.43,1.32,2.44ZM20.14,49.69l-7.73-.11-7.27.05.02-2.3-.09-3.22h.28c.46,0,.84.02,1.15.07s.46.15.46.32c0,.05-.02.16-.07.33s-.07.33-.07.47v2.92h1.12c.44,0,.95,0,1.53.02.57.01,1.12.02,1.67.02s1.08,0,1.62.02c1.46,0,2.81,0,4.05-.02,1.24-.02,2.35-.04,3.33-.07v1.5ZM11.95,39.45c0-.69-.25-1.24-.76-1.66-.58-.48-1.42-.71-2.51-.71s-1.97.21-2.54.62-.86.94-.86,1.56c0,.72.3,1.27.91,1.63.61.37,1.45.55,2.52.55s1.97-.23,2.55-.69c.46-.38.69-.82.69-1.31ZM11.4,31.79c-.38-.03-.8-.05-1.25-.07s-.9-.02-1.35-.02l-2.9.07v-1.33l2.92.05,2.58-.05v1.36ZM22.07,39.2h-3.15l-.05,4.6v.72c0,.22.02.47.07.75l-1.68.09.02-15.78c.4,0,.8.02,1.2.07.43.05.64.15.64.3,0,.05-.03.16-.09.33-.06.18-.09.34-.09.49l-.07,2.53.02,4.39,3.17.05v1.45Z"/>
  <path class="cls-1" d="M47.3,38.33c-.15.03-.3.05-.43.07-.13.02-.25.03-.36.05-.38.06-.76.11-1.13.15-.37.04-.73.07-1.08.1l-3.47.3-.05,2.21v1.06c0,.41,0,.68-.01.79,0,.11-.02.2-.03.26l-1.54.21.09-4.42c-.44.02-.9.03-1.37.05-.47.02-.95.03-1.46.05-.49.02-.94.03-1.33.03-.4,0-.75.01-1.06.01-.17,0-.34.02-.52.07-.18.05-.37.09-.59.14-.09,0-.15-.04-.18-.12l-.25-1.49,1.66.02,3.7-.07c1.13,0,2.28-.05,3.43-.14.37-.02.82-.06,1.36-.14.12-.49.23-.94.31-1.33.08-.4.16-.75.24-1.06.21-1.04.32-1.85.32-2.44-.67-.03-1.4-.05-2.18-.07-.78-.02-1.54-.02-2.28-.02-.81,0-1.67,0-2.56.02-.9.02-1.72.04-2.47.07v-1.31l5.52.05,5.75-.02c0,.41-.14,1.33-.41,2.76-.12.71-.24,1.33-.36,1.86-.11.54-.22.98-.31,1.33.17,0,.34,0,.53-.02.18-.02.38-.04.6-.07.54-.08.96-.13,1.26-.16.31-.03.51-.05.6-.05l.07,1.27ZM50.89,49.66l-6.53-.02h-2.12c-.74,0-1.47,0-2.21.01-.74,0-1.46.02-2.17.03-.71.02-1.38.03-2.01.05l.05-4.21-.05-1.17,1.38-.02c.25,0,.37.07.37.21,0,.06-.03.2-.08.4-.05.21-.08.38-.08.52v2.94l6.76.02h2.24c.67,0,1.25,0,1.74-.02s.96-.03,1.41-.03c.45,0,.89-.03,1.3-.06v1.36ZM50.32,29.75c0,.06-.03.2-.1.41s-.1.39-.1.53l-.02,5.54c0,.54,0,1.25.01,2.15,0,.9.02,1.97.03,3.23.02,1.24.03,2.2.03,2.88,0,.67.01,1.05.01,1.13l-1.59.05v-3.22h-4.25v-1.36l2.25.07,2-.07v-2.92c.02-.75.03-1.38.03-1.87,0-.5.01-.87.01-1.12,0-.74,0-1.41-.02-2.04s-.02-1.22-.02-1.81l-.07-1.86h.57c.41,0,.72.02.92.05.2.03.3.11.3.23Z"/>
  <path class="cls-1" d="M63.66,38.05s-.15.25-.44.6c-.14.18-.25.32-.32.4-.08.08-.12.13-.14.15-.09-.08-.18-.14-.25-.2-.08-.05-.15-.11-.21-.17-.35-.34-.72-.8-1.1-1.38-.12-.18-.23-.36-.33-.52s-.19-.31-.26-.45l-.39-.67-.48.87c-.23.41-.54.9-.93,1.45-.39.55-.85,1.1-1.39,1.63-.18.18-.42.4-.71.64-.4-.23-.73-.43-.99-.6-.26-.17-.39-.28-.39-.32l.09-.05s.06-.06.09-.08.05-.05.07-.08c.03,0,.26-.19.69-.58.29-.26.56-.54.8-.83.25-.29.48-.59.71-.9.31-.46.58-.93.82-1.4.24-.48.43-.96.56-1.45.06-.23.13-.49.2-.78.07-.29.13-.58.17-.86.05-.28.08-.56.11-.83.03-.27.05-.49.05-.68h.14c.41,0,.79.02,1.14.07.34.05.52.15.52.3,0,.05-.02.13-.06.24-.04.11-.08.24-.13.38l-.28,1.33c0,.17.03.38.09.62.06.25.17.52.32.83l.38.76c.1.2.17.34.2.41.21.44.45.81.7,1.08.25.28.51.54.77.8.03.03.06.07.09.12.03.05.06.08.09.11ZM73.34,49.87l-1.84.02.05-5.66c-.83-.03-1.75-.05-2.77-.07-1.02-.02-2.05-.02-3.09-.02-.87,0-1.73,0-2.58.02-.84.02-1.68.04-2.51.07-.28.02-.58.03-.91.03-.33,0-.69.03-1.07.06v-1.68c.15.02.3.02.44.02h.39c.98.03,1.98.06,3,.08s2.07.03,3.14.03l7.71-.07.05,7.15ZM70.63,39.59c0,.06-.16.25-.48.58-.17.17-.29.3-.37.38-.08.08-.12.13-.14.15-.38-.25-.94-.88-1.66-1.91-.74-1.06-1.1-1.77-1.1-2.14-.23.46-.46.89-.69,1.3-.23.41-.48.79-.74,1.16-.26.37-.54.73-.84,1.08-.3.35-.62.71-.98,1.06-.15-.09-.3-.17-.43-.24-.13-.07-.24-.13-.33-.2-.43-.25-.64-.4-.64-.46l.07-.07s.06-.06.08-.09c.02-.03.04-.05.06-.07.09,0,.34-.22.74-.67.31-.31.59-.62.85-.95.26-.33.5-.67.71-1.02.63-1.03,1.06-2.1,1.29-3.22.08-.35.14-.72.2-1.1.05-.38.1-.79.13-1.22.02-.15.02-.32.02-.49s0-.37.02-.59c.12,0,.27.01.45.03.18.02.39.05.63.08.46.08.69.18.69.3,0,.05-.03.15-.09.31-.06.16-.1.28-.11.36l-.3,2c0,.4.07.84.21,1.32.14.48.29.9.46,1.25.17.35.35.68.54.99s.39.59.61.85c.17.17.33.34.49.52.16.18.33.35.49.52.06.12.1.18.12.18.02.02.03.02.05.02ZM73.43,29.88c0,.08-.02.21-.06.39-.04.18-.06.32-.06.41l-.05,6.16c0,.92,0,1.79.02,2.6.02.81.04,1.54.07,2.19h-1.77l.07-5.82c0-.92,0-1.72-.01-2.39,0-.67-.02-1.23-.03-1.68-.02-.44-.03-.85-.03-1.23,0-.38-.03-.72-.06-1.05h.09c.49,0,.92.02,1.28.07.36.05.54.16.54.35Z"/>
  <path class="cls-1" d="M105.72,40.21h-2.09c-.86-.02-1.93-.03-3.22-.05-1.29-.02-2.63-.03-4.02-.05h-2.55c-.74,0-1.38,0-1.93.02-.55.02-1.12.03-1.69.03-.58,0-1.15.02-1.74.03-.6.02-1.12.02-1.58.02s-.83,0-1.14.02v-1.31c.17.02.33.02.47.02h.4c1.67.05,3,.07,3.98.07l4.85-.02v-4.28h.52c.18,0,.37,0,.59.02.41.02.62.1.62.25,0,.03-.03.14-.1.33-.07.19-.1.38-.1.56v3.13l8.74-.09v1.26ZM93.47,30.46c0,.44-.03.99-.08,1.63-.05.64-.13,1.4-.24,2.28-.12.87-.25,1.59-.37,2.15-.12.56-.25.97-.37,1.23l-1.33-.23c.03-.11.05-.2.07-.28s.03-.15.05-.21c.12-.49.22-.93.3-1.31.08-.38.14-.71.18-.99.09-.58.16-1.11.2-1.59.04-.48.06-.94.06-1.38-.31-.03-.64-.05-1-.07-.36-.02-.7-.02-1.02-.02-.58,0-1.23.02-1.93.07-.08,0-.16,0-.24.01s-.18.02-.29.03v-1.4c.17,0,.4,0,.69.01.29,0,.64.02,1.03.03.4.02.71.03.92.03.21,0,.34.01.37.01l3.01-.02ZM104.11,48.65s-.02.1-.07.16c-.05.06-.1.13-.16.2-.06.07-.12.13-.17.2-.05.06-.09.11-.1.14l-.37.67c-.35-.11-.67-.2-.95-.29-.28-.08-.53-.17-.75-.24-.66-.25-1.26-.51-1.79-.78-.54-.28-1.01-.58-1.43-.92-.72-.54-1.35-1.11-1.89-1.72-.08-.11-.16-.22-.25-.33-.09-.12-.19-.25-.3-.4-.2.35-.39.64-.58.87-.52.69-1.19,1.3-2,1.84-.81.54-1.76,1.03-2.83,1.47-.17.06-.37.13-.61.21s-.49.17-.77.28c-.02-.09-.24-.33-.67-.71-.08-.06-.17-.13-.26-.22-.1-.08-.22-.19-.36-.31l.07-.07c.34-.06.64-.12.91-.18.27-.06.51-.12.72-.18.63-.18,1.2-.39,1.73-.62.52-.23,1-.5,1.45-.81,1.17-.75,1.92-1.62,2.28-2.6.05-.14.09-.34.14-.6l-3.2.02-3.75.16v-1.36c.98.03,2.12.05,3.4.07,1.29.02,2.78.02,4.46.02h2.44c.72,0,1.36,0,1.93-.02.58-.02,1.13-.03,1.64-.03.51,0,1.02-.03,1.51-.06v1.29c-.55-.03-1.17-.06-1.85-.09s-1.37-.05-2.06-.05l-3.06.02c.15.49.35.9.6,1.24.35.52.86,1.04,1.52,1.56.97.74,2.14,1.3,3.52,1.7.23.06.49.12.79.18.3.06.63.13,1,.21.02,0,.05.03.12.09ZM103.06,30.48c0,.35-.03.84-.1,1.46-.07.62-.19,1.39-.36,2.31-.17.92-.32,1.66-.45,2.23-.13.57-.25.97-.36,1.22l-1.47-.16c.06-.2.11-.36.14-.48.12-.46.24-.91.35-1.35.11-.44.21-.87.3-1.3.11-.55.2-1.17.28-1.86.01-.11.02-.22.02-.35s0-.27.02-.44c-.11-.02-.2-.02-.29-.02h-.22c-1.01-.05-1.66-.07-1.93-.07-.63,0-1.18,0-1.67.02s-.95.05-1.41.09v-1.31l3.59.07,3.56-.07Z"/>
  <path class="cls-1" d="M120.15,39.02c0,2.01-.42,3.63-1.26,4.88-.97,1.43-2.4,2.14-4.3,2.14-1.79,0-3.17-.71-4.12-2.12-.89-1.29-1.33-2.92-1.33-4.9s.45-3.53,1.36-4.78c1.01-1.4,2.39-2.09,4.14-2.09,1.96,0,3.4.67,4.32,2.02.8,1.17,1.2,2.78,1.2,4.85ZM118.63,39.11c0-1.92-.39-3.37-1.17-4.37-.69-.9-1.65-1.36-2.88-1.36-.63,0-1.18.13-1.66.4-.48.27-.88.66-1.21,1.16-.33.51-.58,1.12-.75,1.84-.17.72-.25,1.53-.25,2.42,0,1.76.36,3.12,1.09,4.06.73.94,1.74,1.41,3.05,1.41s2.3-.59,2.94-1.77c.55-.98.83-2.25.83-3.79ZM128.93,40.76l-3.36-.02.16,9.52h-1.73l.07-11.06v-2.59c0-.74,0-1.37-.02-1.87-.03-1.03-.05-2.15-.07-3.38,0-1.26,0-1.89-.02-1.89h.09c.44,0,.83.02,1.16.07.33.05.49.15.49.32,0,.09,0,.15-.02.18-.08.28-.12.43-.12.46v8.88l3.36-.09v1.47Z"/>
  <path class="cls-1" d="M145.49,42.83l-.14-.05c-.15-.03-.28-.05-.39-.05-.49,0-1.3.05-2.42.14-.23.03-.61.07-1.13.13-.52.05-1.2.13-2.02.22-.46.06-1.06.13-1.79.2-.74.07-1.62.15-2.65.24-.31.03-.66.06-1.06.09-.4.03-.85.06-1.36.09v-10.51l-.05-1.15c.29,0,.67.05,1.13.14.51.12.76.28.76.46,0,.09-.03.23-.1.41-.07.18-.1.3-.1.34v8.72c.66-.01,1.39-.04,2.19-.07.8-.03,1.79-.11,2.99-.23,1.23-.12,2.33-.24,3.31-.34s1.72-.16,2.21-.16c.12,0,.26.02.41.05.03,0,.08.02.16.07l.05,1.27ZM152.12,40.83h-3.45v9.06l-1.66.05.05-18.77c0-.58,0-.99-.02-1.23-.02-.24-.04-.4-.07-.49.41,0,.83.02,1.24.07.44.05.67.15.67.3,0,.06-.03.18-.1.37-.07.18-.1.31-.1.39v8.81l3.45-.05v1.5Z"/>
  <path class="cls-1" d="M164.95,33.01c0,.97-.12,1.94-.37,2.92-.37,1.58-1,3.09-1.91,4.53-.91,1.44-1.99,2.71-3.24,3.82-.48.4-.95.76-1.43,1.09-.48.33-.96.63-1.45.91-.72.38-1.14.57-1.27.57l-1.13-1.31c.09,0,.46-.15,1.1-.46.94-.44,1.79-.97,2.58-1.56,1.13-.87,2.12-1.9,2.94-3.08.35-.51.67-1.02.94-1.55.28-.53.52-1.08.74-1.64.15-.4.28-.79.39-1.16.11-.38.19-.75.25-1.14.02-.17.03-.33.05-.48.02-.15.04-.31.07-.46h-5.6c-.47,0-.85,0-1.16.02-.31.02-.58.03-.82.03s-.45.02-.63.03v-1.61c.49.03,1.08.06,1.77.09s1.54.05,2.55.05h.51c1.35,0,2.41,0,3.19-.02.77-.02,1.41-.04,1.9-.07l.02.48ZM175.46,41.06h-3.8v8.99h-1.61l.02-13.55v-3.07c0-.81,0-1.39-.02-1.76-.02-.37-.03-.74-.03-1.1,0-.37-.03-.74-.06-1.1h.51c.4,0,.72.02.95.06.24.04.36.13.36.29,0,.05-.02.16-.06.35-.04.18-.06.31-.06.39v9.11l3.8-.05v1.45Z"/>
  <path class="cls-1" d="M198.02,40.92h-2.44c-.64-.01-1.32-.03-2.04-.03s-1.48-.02-2.31-.03c-.81-.02-1.5-.03-2.07-.03-.57,0-1.02-.01-1.36-.01-1.24,0-2.36,0-3.36.01-1,0-1.9.02-2.71.03-.8.02-1.55.03-2.25.05-.71.02-1.38.03-2.02.05v-1.56c.31,0,1.17.02,2.6.07,1.4.02,2.67.04,3.82.07.58.02,1.19.02,1.82.02h9.96c.44-.02.86-.03,1.25-.03s.76-.02,1.12-.03v1.45ZM195.01,36.09l-7.25-.07-6.85.05.05-2.81-.05-3.08c.6,0,1.06.03,1.39.1.33.07.49.19.49.36,0,.06-.05.19-.14.39-.09.2-.14.34-.14.44v3.13l5.89.07,6.6-.05v1.47ZM195.13,49.5c-.52-.02-1.07-.03-1.66-.05-.58-.02-1.18-.03-1.79-.03s-1.23-.01-1.84-.01h-1.77l-6.92.05c.03-.43.05-.89.07-1.38.01-.49.02-.97.02-1.43v-2.09c0-.29,0-.53.01-.72,0-.19.02-.36.03-.52l.6-.02c.31,0,.58.03.82.08.24.05.36.14.36.26,0,.02,0,.06-.02.13-.02.07-.03.15-.03.24,0,.09-.02.18-.03.28-.02.09-.02.16-.02.21l-.07,3.5,5.84.05,6.42-.05v1.52Z"/>
  <path class="cls-1" d="M15.77,70.43l-.14-.05c-.15-.03-.28-.05-.39-.05-.49,0-1.3.05-2.42.14-.23.03-.61.07-1.13.13-.52.05-1.2.13-2.02.22-.46.06-1.06.13-1.79.2-.74.07-1.62.15-2.65.24-.31.03-.66.06-1.06.09-.4.03-.85.06-1.36.09v-10.51l-.05-1.15c.29,0,.67.05,1.13.14.51.12.76.28.76.46,0,.09-.03.23-.1.41-.07.18-.1.3-.1.34v8.72c.66-.01,1.39-.04,2.19-.07.8-.03,1.79-.11,2.99-.23,1.23-.12,2.33-.24,3.31-.34s1.72-.16,2.21-.16c.12,0,.26.02.41.05.03,0,.08.02.16.07l.05,1.27ZM22.4,68.43h-3.45v9.06l-1.66.05.05-18.77c0-.58,0-.99-.02-1.23-.02-.24-.04-.4-.07-.49.41,0,.83.02,1.24.07.44.05.67.15.67.3,0,.06-.03.18-.1.37-.07.18-.1.31-.1.39v8.81l3.45-.05v1.5Z"/>
  <path class="cls-1" d="M35.69,68.96l-9.87.07.07-4.42-.07-5.06,4.58.05c.86,0,1.76,0,2.69-.02.94-.02,1.8-.04,2.6-.07l-.05,4.78.05,4.67ZM34.08,64.66l-.05-3.79-6.53.09-.07,3.31.05,3.33,6.56-.02.05-2.92ZM42.68,77.06c-.86.03-1.83.05-2.92.07-1.09.02-2.25.02-3.47.02h-1.59c-1.06,0-2.16,0-3.31.01-1.15,0-2.21.03-3.17.06l.05-2.65-.09-3.27h.55c.49,0,.84.02,1.06.05.21.03.32.09.32.18-.05.15-.09.31-.13.47-.04.16-.06.3-.06.43v3.31l2.16.02,3.38-.05,7.22-.21v1.54ZM45.23,66.48h-3.27l-.02,2.39.07,3.54-1.7.16c.02-.38.02-.87.02-1.46s0-1.29.02-2.1c.02-.83.02-1.59.02-2.3v-1.98l-.05-5.75c0-.35,0-.7-.02-1.05-.02-.35-.04-.62-.07-.84h.32c.41,0,.79.02,1.13.06s.51.12.51.24c0,.06-.04.2-.12.41-.08.21-.11.39-.11.53v6.58h3.27v1.56Z"/>
  <path class="cls-1" d="M63.06,71.79c-1.13.18-2.02.32-2.65.41-1,.12-1.9.22-2.7.29-.8.07-1.51.1-2.13.1l-5.84.21c-.11.03-.21.06-.31.08-.1.02-.2.05-.31.08-.18,0-.33-.21-.44-.62-.11-.41-.16-.77-.16-1.08l6.88-.02c1.1,0,2.13-.03,3.08-.09.95-.06,1.83-.15,2.65-.28.51-.06,1.11-.19,1.82-.39l.12,1.31ZM60.9,63.76c0,1.29-.51,2.32-1.54,3.1-1.01.78-2.27,1.17-3.77,1.17s-2.74-.37-3.68-1.1c-1-.77-1.49-1.84-1.49-3.22,0-1.47.51-2.61,1.54-3.4.97-.75,2.19-1.13,3.68-1.13s2.78.4,3.79,1.2c.98.8,1.47,1.89,1.47,3.29v.09ZM59.33,63.58c0-2.01-1.2-3.01-3.59-3.01-1.23,0-2.18.28-2.86.83-.68.55-1.02,1.27-1.02,2.16,0,1,.35,1.78,1.06,2.35.64.51,1.51.76,2.6.76,1.32,0,2.3-.29,2.94-.87.58-.51.87-1.24.87-2.21ZM66.14,57.51c0,.08-.03.23-.1.45-.07.22-.1.38-.1.47v9.04c0,.69,0,1.43.01,2.21,0,.78.02,1.63.03,2.55.02.9.03,1.79.05,2.67s.04,1.75.07,2.62l-1.73.21v-2.16c.02-.46.02-1.02.02-1.68s0-1.43.02-2.32c.02-.87.02-1.63.02-2.27v-1.55c0-1.58,0-2.94-.02-4.08-.02-1.14-.04-2.06-.07-2.75-.03-.69-.06-1.35-.08-1.99s-.05-1.25-.08-1.83h.37c.4,0,.76.03,1.09.09.33.06.49.17.49.32Z"/>
  <path class="cls-1" d="M88.71,69.08h-9.36c0,1.76.41,3.11,1.23,4.04s1.9,1.39,3.23,1.39c1.01,0,1.99-.32,2.92-.97.26-.17.54-.38.83-.63s.61-.55.94-.89v2c-.37.28-.71.52-1.02.72s-.61.38-.89.52c-.97.51-1.93.76-2.9.76-1.67,0-3.09-.57-4.25-1.72-1.26-1.21-1.89-2.78-1.89-4.72,0-1.82.57-3.35,1.7-4.58,1.15-1.24,2.57-1.86,4.25-1.86s2.94.6,3.91,1.79c.86,1.09,1.29,2.47,1.29,4.14ZM79.57,67.67h7.2c-.18-1.04-.58-1.82-1.18-2.33-.61-.51-1.34-.77-2.2-.77-.95,0-1.76.3-2.42.9-.61.55-1.08,1.29-1.4,2.21Z"/>
  <path class="cls-1" d="M90.41,68.68h7.52v1.68h-7.52v-1.68Z"/>
  <path class="cls-1" d="M122.77,75.86l-10.35-.12h-3.28c-.7,0-1.3,0-1.81.02-.49.02-.98.02-1.46.02s-.97,0-1.46.02c-.95.02-1.67.04-2.16.07v-1.66l4.3.07,5.08-.02.07-2.65-.05-3.22h.35c.41,0,.78.03,1.09.08s.47.17.47.33c0,.05-.03.17-.08.36-.05.19-.08.33-.08.4-.08.12-.11.94-.11,2.44,0,.55.02,1.15.07,1.79,0,.06,0,.13.01.21,0,.08.02.16.03.25l4.14.02c.84,0,1.73,0,2.66-.01.93,0,1.78-.03,2.56-.06v1.63ZM120.03,67.81l-5.59-.02-9.34.05.07-4.25-.05-4.53c.34.02.64.02.92.02h.76c1.55.03,2.84.05,3.89.07,1.04.02,1.83.02,2.37.02l6.78-.05v1.5l-6.81-.05-6.19.02-.07,2.83.05,2.97c.97.03,2.03.05,3.19.07,1.16.02,2.27.02,3.35.02h1.55c.54,0,1.12,0,1.74-.02,1.2-.02,2.32-.04,3.38-.07v1.43Z"/>
  <path class="cls-1" d="M137.86,71.49c0,.06-.06.13-.18.21l-.35.23c-.12.12-.3.28-.53.46l-.18.14c-.25-.21-.48-.42-.71-.62s-.47-.41-.71-.62c-.26-.29-.52-.61-.78-.95-.26-.34-.52-.72-.78-1.14-.15-.24-.3-.52-.45-.84-.15-.31-.3-.67-.47-1.07-.17-.4-.31-.78-.43-1.15-.12-.37-.21-.72-.29-1.06-.08.28-.15.51-.21.69-.44,1.15-1.14,2.37-2.09,3.66-.25.32-.51.64-.78.94-.28.31-.57.61-.87.92-.26.21-.51.43-.76.64-.25.21-.5.43-.76.64l-.85-.58-.39-.28-.14-.09.09-.14c.08,0,.38-.21.92-.64.72-.58,1.42-1.3,2.09-2.14.46-.58.88-1.2,1.25-1.85.38-.65.7-1.34.98-2.06.41-1.01.71-2.29.9-3.84.03-.26.06-.55.09-.87.03-.32.06-.7.09-1.13.12,0,.28.02.46.05.18.03.41.08.67.14.52.12.78.25.78.39,0,.06-.04.15-.13.28-.08.12-.13.21-.15.28-.05.26-.08.48-.1.66s-.05.33-.08.45c-.15.77-.23,1.18-.23,1.24l.39,1.75c.11.41.25.86.41,1.35.17.48.38.98.63,1.5.25.51.56,1.04.93,1.59.37.54.81,1.08,1.31,1.6.17.17.36.35.59.55.22.2.48.41.77.64l.05.09ZM143.51,57.53c0,.06-.02.17-.07.33-.05.16-.07.3-.07.43l-.07,7.41.07,11.89-1.75.09.09-11.36-5.01.14v-1.63h4.99l.02-5.68v-.97c0-.25,0-.43-.02-.55,0-.12,0-.23-.01-.31,0-.08-.02-.16-.03-.24.17,0,.35,0,.55.02s.41.04.62.07c.46.08.69.2.69.37Z"/>
  <path class="cls-1" d="M162.6,69.79s-.83.05-2.39.14c-.78.03-1.62.07-2.52.11-.9.05-1.87.08-2.93.12s-2.02.06-2.88.08c-.86.02-1.63.03-2.32.03-.08,0-.17.01-.26.03-.1.02-.2.05-.3.07-.1.02-.19.04-.26.06-.08.02-.12.02-.14.02-.11,0-.18-.08-.23-.23l-.21-1.36c.26.05.53.08.79.09.27.02.52.02.75.02.25,0,.53,0,.84-.01.31,0,.67-.02,1.07-.03.78-.05,1.26-.07,1.43-.07l-.09-5.31c.54,0,.95.03,1.24.08.29.05.44.13.44.22,0-.02-.02.05-.05.21-.08.28-.11.49-.11.64l-.02,4.14c.57,0,1.1,0,1.61-.01.51,0,.99-.02,1.45-.03,1.59-.06,2.81-.1,3.66-.13s1.33-.03,1.45-.03v1.15ZM160,59.37c-.02.17-.02.32-.02.45s0,.26-.02.38c-.09,1.69-.14,3.14-.14,4.35,0,.32-.01.64-.03.97-.02.32-.05.65-.08.99-.02.09-.03.2-.05.33-.02.13-.04.28-.07.45l-1.5-.05c.03-.12.05-.24.06-.35,0-.11.02-.2.03-.28.14-.98.21-1.88.21-2.69,0-.51,0-.93.02-1.27.02-.34.03-.66.05-.97,0-.35,0-.59-.01-.72s-.02-.23-.03-.31l-3.79.02c-.84,0-1.73.02-2.65.05-.92.03-1.77.06-2.55.09v-1.43c.23.02.51.02.83.02s.69,0,1.1.02c.44.02.82.02,1.13.02h.78l6.74-.09ZM165.85,77.29l-6.07.07-7.84-.05.05-2.85-.07-2.3c.18,0,.37,0,.56.01.19,0,.37.02.53.05.16.02.29.06.4.1.11.05.16.1.16.16,0,.03-.02.13-.07.3-.05.17-.07.34-.07.51v2.71l5.57.07,6.85-.05v1.27ZM168.95,67.67c-.12-.02-.27-.02-.45-.02s-.38,0-.61-.02c-.22-.02-.4-.02-.54-.02h-.33l-1.68.02v6.23h-1.61c0-1.07.02-2.88.05-5.43.03-2.54.05-5.9.05-10.07,0-.41,0-.71-.02-.89-.02-.18-.04-.31-.07-.4h.28c.41,0,.78.02,1.1.06.32.04.48.13.48.26,0,.03-.04.15-.11.37-.08.21-.12.41-.12.57l-.05,7.91,1.68.07,1.96-.05v1.4Z"/>
  <path class="cls-2" d="M.91,85.29h2.16l5.52,8.3,5.43-8.3h2.25l-6.81,9.89v8.14h-1.79v-8.14l-6.76-9.89Z"/>
  <path class="cls-2" d="M28.33,96.68h-9.36c0,1.76.41,3.11,1.23,4.04s1.9,1.39,3.23,1.39c1.01,0,1.99-.32,2.92-.97.26-.17.54-.38.83-.63s.61-.55.94-.89v2c-.37.28-.71.52-1.02.72s-.61.38-.89.52c-.97.51-1.93.76-2.9.76-1.67,0-3.09-.57-4.25-1.72-1.26-1.21-1.89-2.78-1.89-4.72,0-1.82.57-3.35,1.7-4.58,1.15-1.24,2.57-1.86,4.25-1.86s2.94.6,3.91,1.79c.86,1.09,1.29,2.47,1.29,4.14ZM19.2,95.27h7.2c-.18-1.04-.58-1.82-1.18-2.33-.61-.51-1.34-.77-2.2-.77-.95,0-1.76.3-2.42.9-.61.55-1.08,1.29-1.4,2.21Z"/>
  <path class="cls-2" d="M30.31,85.29h1.82v16.45h8.9v1.59h-10.72v-18.03Z"/>
  <path class="cls-2" d="M54.87,94.15c-.37,0-.64-.15-.83-.46-.18-.31-.28-.68-.28-1.13s.1-.85.29-1.16c.19-.31.46-.47.82-.47.32,0,.58.14.78.43.2.28.3.67.3,1.16,0,.46-.09.85-.28,1.16-.18.31-.45.47-.8.47ZM54.87,103.39c-.37,0-.64-.15-.83-.46-.18-.31-.28-.68-.28-1.13s.1-.85.29-1.16c.19-.31.46-.47.82-.47.32,0,.58.14.78.43.2.28.3.67.3,1.16,0,.46-.09.85-.28,1.16-.18.31-.45.47-.8.47Z"/>
  <path class="cls-2" d="M61.08,85.29h2.16l5.52,8.3,5.43-8.3h2.25l-6.81,9.89v8.14h-1.79v-8.14l-6.76-9.89Z"/>
  <path class="cls-2" d="M83.44,103.62c-1.58,0-2.97-.57-4.16-1.72-1.27-1.21-1.91-2.78-1.91-4.72,0-1.82.56-3.35,1.68-4.58,1.15-1.24,2.57-1.86,4.25-1.86s3.08.62,4.23,1.86c1.13,1.23,1.7,2.74,1.7,4.55,0,1.9-.61,3.47-1.84,4.71-1.14,1.17-2.45,1.75-3.96,1.75ZM83.28,102.1c1.1,0,2.08-.46,2.94-1.38.83-.94,1.24-2.12,1.24-3.56s-.44-2.7-1.33-3.63c-.81-.86-1.76-1.29-2.83-1.29s-2.05.44-2.83,1.33c-.86.98-1.29,2.19-1.29,3.61s.42,2.65,1.27,3.61c.78.87,1.73,1.31,2.83,1.31Z"/>
  <path class="cls-2" d="M91,91.02h1.68v7.84c0,.87.25,1.61.76,2.21.55.69,1.33,1.03,2.35,1.03,1.17,0,2.16-.47,2.99-1.4.86-.98,1.29-2.06,1.29-3.24v-6.44h1.66v12.31h-1.45l-.11-2.09c-.25.34-.51.64-.78.91-.28.27-.57.5-.9.7-.86.52-1.8.78-2.83.78-1.41,0-2.54-.44-3.38-1.31-.84-.89-1.27-1.97-1.27-3.24v-8.05Z"/>
  <path class="cls-2" d="M110.46,91.02v1.66c-.17-.06-.31-.11-.41-.15-.11-.04-.2-.07-.28-.08s-.16-.03-.24-.03c-.08,0-.2-.01-.33-.01-1.12,0-2.04.54-2.76,1.63-.61,1-.92,2.11-.92,3.33v5.96h-1.66v-12.31h1.52l.11,2.12c.38-.64.74-1.1,1.08-1.38.69-.57,1.52-.85,2.48-.85.26,0,.5,0,.72.02.22.02.45.05.68.09Z"/>
  <path class="cls-2" d="M130.13,96.68h-9.36c0,1.76.41,3.11,1.23,4.04s1.9,1.39,3.23,1.39c1.01,0,1.99-.32,2.92-.97.26-.17.54-.38.83-.63s.61-.55.94-.89v2c-.37.28-.71.52-1.02.72s-.61.38-.89.52c-.97.51-1.93.76-2.9.76-1.67,0-3.09-.57-4.25-1.72-1.26-1.21-1.89-2.78-1.89-4.72,0-1.82.57-3.35,1.7-4.58,1.15-1.24,2.57-1.86,4.25-1.86s2.94.6,3.91,1.79c.86,1.09,1.29,2.47,1.29,4.14ZM121,95.27h7.2c-.18-1.04-.58-1.82-1.18-2.33-.61-.51-1.34-.77-2.2-.77-.95,0-1.76.3-2.42.9-.61.55-1.08,1.29-1.4,2.21Z"/>
  <path class="cls-2" d="M131.83,96.28h7.52v1.68h-7.52v-1.68Z"/>
  <path class="cls-2" d="M143.6,85.29h1.82v16.45h8.9v1.59h-10.72v-18.03Z"/>
  <path class="cls-2" d="M156.83,85.82c.32,0,.59.11.8.32.21.21.32.52.32.92s-.1.71-.3.92c-.2.21-.48.32-.83.32s-.62-.12-.82-.37c-.19-.25-.29-.53-.29-.85,0-.51.11-.84.34-1.01.23-.17.48-.25.76-.25ZM156.02,91.02h1.66v12.31h-1.66v-12.31Z"/>
  <path class="cls-2" d="M159.8,85.29h1.68v7.8c.21-.32.43-.6.63-.83s.42-.43.63-.6c.8-.61,1.73-.92,2.78-.92,1.59,0,2.91.61,3.93,1.82,1.06,1.23,1.59,2.71,1.59,4.46s-.53,3.32-1.59,4.58c-1.13,1.35-2.55,2.02-4.25,2.02-.94,0-1.75-.21-2.44-.62-.44-.25-.87-.6-1.29-1.06l-.44,1.38h-1.24v-18.03ZM161.47,96.63v3.56c.21.26.43.49.64.69s.41.37.6.51c.67.48,1.44.71,2.3.71,1.18,0,2.15-.48,2.92-1.45.77-1,1.15-2.2,1.15-3.61s-.43-2.68-1.29-3.61c-.74-.8-1.59-1.2-2.55-1.2-1.04,0-1.94.44-2.69,1.33-.72.86-1.08,1.88-1.08,3.06Z"/>
  <path class="cls-2" d="M179.32,91.02v1.66c-.17-.06-.31-.11-.41-.15-.11-.04-.2-.07-.28-.08s-.16-.03-.24-.03c-.08,0-.2-.01-.33-.01-1.12,0-2.04.54-2.76,1.63-.61,1-.92,2.11-.92,3.33v5.96h-1.66v-12.31h1.52l.11,2.12c.38-.64.74-1.1,1.08-1.38.69-.57,1.52-.85,2.48-.85.26,0,.5,0,.72.02.22.02.45.05.68.09Z"/>
  <path class="cls-2" d="M190.39,95.36v5.8c0,.26.06.49.17.68.12.19.33.29.63.29.09,0,.17,0,.23-.01.06,0,.12-.02.18-.03.09-.03.17-.06.24-.09s.13-.05.17-.07v1.29c-.28.09-.55.16-.83.2-.28.04-.49.06-.64.06-.78,0-1.3-.21-1.54-.62-.2-.26-.3-.82-.3-1.68-.2.34-.4.63-.6.89-.2.25-.4.46-.6.63-.8.63-1.73.94-2.78.94-1.12,0-2.09-.33-2.92-.99-.86-.71-1.29-1.6-1.29-2.69,0-1.36.69-2.37,2.07-3.01.51-.25,1.18-.46,2.01-.64.84-.18,1.84-.35,3-.51l1.1-.12c0-1.07-.27-1.91-.82-2.52-.54-.61-1.35-.91-2.4-.91-.4,0-.79.05-1.18.15-.39.1-.79.26-1.18.47-.21.12-.45.27-.71.44-.26.17-.54.38-.85.64v-1.89c1.3-.87,2.71-1.31,4.21-1.31s2.71.48,3.54,1.45c.72.84,1.08,1.9,1.08,3.17ZM188.71,97.78v-.74l-.78.09c-1.92.2-3.27.47-4.05.81-1.04.41-1.56,1.09-1.56,2.02,0,.28.06.54.18.79s.29.48.51.68c.21.2.48.36.79.48.31.12.66.18,1.05.18,1.04,0,1.96-.42,2.74-1.26.75-.86,1.13-1.88,1.13-3.06Z"/>
  <path class="cls-2" d="M200.41,91.02v1.66c-.17-.06-.31-.11-.41-.15-.11-.04-.2-.07-.28-.08s-.16-.03-.24-.03c-.08,0-.2-.01-.33-.01-1.12,0-2.04.54-2.76,1.63-.61,1-.92,2.11-.92,3.33v5.96h-1.66v-12.31h1.52l.11,2.12c.38-.64.74-1.1,1.08-1.38.69-.57,1.52-.85,2.48-.85.26,0,.5,0,.72.02.22.02.45.05.68.09Z"/>
  <path class="cls-2" d="M201.52,91.02h1.84l4.23,10.4,3.61-10.4h1.82l-5.13,13.73c-.37.98-.84,1.68-1.43,2.09-.52.35-1.14.53-1.86.53-.37,0-.67-.03-.92-.08-.25-.05-.48-.13-.71-.22v-1.59c.21.11.46.2.72.28.27.08.51.12.72.12.54,0,.95-.14,1.25-.41.3-.28.56-.71.79-1.31l.28-.94-5.22-12.19Z"/>
</svg>